<svg xmlns="http://www.w3.org/2000/svg" xmlns:xlink="http://www.w3.org/1999/xlink" width="500" zoomAndPan="magnify" viewBox="0 0 375 374.999991" height="500" preserveAspectRatio="xMidYMid meet" version="1.0"  fill="#eff2f8">
  <path d="M 187.371094 0 C 187.46875 0 187.566406 0 187.664062 0.00390625 C 196.980469 0.046875 205.445312 3.871094 211.582031 10.007812 C 217.746094 16.175781 221.566406 24.699219 221.574219 34.09375 L 221.59375 34.09375 L 221.59375 153.40625 L 340.90625 153.40625 C 350.285156 153.40625 358.808594 157.242188 364.988281 163.417969 C 371.132812 169.566406 374.964844 178.039062 375 187.371094 C 375 187.46875 375 187.566406 375 187.664062 C 374.953125 196.980469 371.128906 205.4375 364.988281 211.582031 C 358.824219 217.746094 350.300781 221.566406 340.90625 221.566406 L 340.90625 221.59375 L 221.59375 221.59375 L 221.59375 340.90625 C 221.59375 350.285156 217.757812 358.816406 211.582031 364.988281 C 205.433594 371.132812 196.960938 374.964844 187.628906 374.996094 C 187.53125 375 187.433594 375 187.335938 374.996094 C 178.019531 374.953125 169.554688 371.128906 163.417969 364.988281 C 157.257812 358.824219 153.433594 350.300781 153.433594 340.90625 L 153.40625 340.90625 L 153.40625 221.59375 L 34.09375 221.59375 C 24.714844 221.59375 16.191406 217.757812 10.011719 211.582031 C 3.867188 205.433594 0.0351562 196.960938 0.00390625 187.628906 C 0 187.53125 0 187.433594 0.00390625 187.335938 C 0.046875 178.019531 3.871094 169.554688 10.011719 163.417969 C 16.175781 157.253906 24.699219 153.433594 34.09375 153.433594 L 34.09375 153.40625 L 153.40625 153.40625 L 153.40625 34.09375 C 153.40625 24.714844 157.242188 16.183594 163.417969 10.007812 C 169.566406 3.859375 178.039062 0.0351562 187.371094 0 " fill-opacity="1" fill-rule="nonzero"/>
</svg>