<svg xmlns="http://www.w3.org/2000/svg" xmlns:xlink="http://www.w3.org/1999/xlink" width="500" zoomAndPan="magnify" viewBox="0 0 375 374.999991" height="500" preserveAspectRatio="xMidYMid meet" version="1.0"><defs><clipPath id="id1"><path d="M 0 17.375 L 53 17.375 L 53 70 L 0 70 Z M 0 17.375 " clip-rule="nonzero"/></clipPath><clipPath id="id2"><path d="M 322 17.375 L 375 17.375 L 375 70 L 322 70 Z M 322 17.375 " clip-rule="nonzero"/></clipPath><clipPath id="id3"><path d="M 0 17.375 L 375 17.375 L 375 262 L 0 262 Z M 0 17.375 " clip-rule="nonzero"/></clipPath><clipPath id="id4"><path d="M 144 251 L 232 251 L 232 357.875 L 144 357.875 Z M 144 251 " clip-rule="nonzero"/></clipPath></defs><path fill="#eff2f8" d="M 265.128906 65.070312 L 109.910156 65.070312 C 109.558594 65.070312 109.210938 65.035156 108.867188 64.96875 C 108.523438 64.898438 108.1875 64.796875 107.863281 64.664062 C 107.539062 64.527344 107.234375 64.363281 106.941406 64.167969 C 106.648438 63.972656 106.378906 63.753906 106.132812 63.503906 C 105.882812 63.257812 105.660156 62.984375 105.464844 62.695312 C 105.269531 62.402344 105.105469 62.09375 104.972656 61.769531 C 104.839844 61.445312 104.738281 61.109375 104.667969 60.765625 C 104.601562 60.421875 104.566406 60.074219 104.566406 59.722656 C 104.566406 59.371094 104.601562 59.023438 104.667969 58.679688 C 104.738281 58.335938 104.839844 58 104.972656 57.675781 C 105.105469 57.351562 105.269531 57.042969 105.464844 56.75 C 105.660156 56.460938 105.882812 56.191406 106.132812 55.941406 C 106.378906 55.691406 106.648438 55.472656 106.941406 55.277344 C 107.234375 55.082031 107.539062 54.917969 107.863281 54.78125 C 108.1875 54.648438 108.523438 54.546875 108.867188 54.476562 C 109.210938 54.410156 109.558594 54.375 109.910156 54.375 L 265.128906 54.375 C 265.480469 54.375 265.828125 54.410156 266.171875 54.476562 C 266.515625 54.546875 266.847656 54.648438 267.171875 54.78125 C 267.496094 54.917969 267.804688 55.082031 268.097656 55.277344 C 268.390625 55.472656 268.660156 55.691406 268.90625 55.941406 C 269.15625 56.191406 269.375 56.460938 269.570312 56.75 C 269.765625 57.042969 269.929688 57.351562 270.066406 57.675781 C 270.199219 58 270.300781 58.335938 270.371094 58.679688 C 270.4375 59.023438 270.472656 59.371094 270.472656 59.722656 C 270.472656 60.074219 270.4375 60.421875 270.371094 60.765625 C 270.300781 61.109375 270.199219 61.445312 270.066406 61.769531 C 269.929688 62.09375 269.765625 62.402344 269.570312 62.695312 C 269.375 62.984375 269.15625 63.257812 268.90625 63.503906 C 268.660156 63.753906 268.390625 63.972656 268.097656 64.167969 C 267.804688 64.363281 267.496094 64.527344 267.171875 64.664062 C 266.847656 64.796875 266.515625 64.898438 266.171875 64.96875 C 265.828125 65.035156 265.480469 65.070312 265.128906 65.070312 Z M 265.128906 65.070312 " fill-opacity="1" fill-rule="nonzero"/><path fill="#eff2f8" d="M 231.164062 94.921875 L 143.875 94.921875 C 143.523438 94.921875 143.175781 94.886719 142.832031 94.816406 C 142.488281 94.75 142.152344 94.648438 141.828125 94.511719 C 141.503906 94.378906 141.195312 94.214844 140.90625 94.019531 C 140.613281 93.824219 140.34375 93.601562 140.09375 93.355469 C 139.847656 93.105469 139.625 92.835938 139.429688 92.542969 C 139.234375 92.25 139.070312 91.945312 138.9375 91.621094 C 138.800781 91.292969 138.703125 90.960938 138.632812 90.617188 C 138.5625 90.273438 138.53125 89.925781 138.53125 89.574219 C 138.53125 89.222656 138.5625 88.875 138.632812 88.53125 C 138.703125 88.183594 138.800781 87.851562 138.9375 87.527344 C 139.070312 87.203125 139.234375 86.894531 139.429688 86.601562 C 139.625 86.308594 139.847656 86.039062 140.09375 85.792969 C 140.34375 85.542969 140.613281 85.320312 140.90625 85.125 C 141.195312 84.929688 141.503906 84.765625 141.828125 84.632812 C 142.152344 84.496094 142.488281 84.394531 142.832031 84.328125 C 143.175781 84.257812 143.523438 84.226562 143.875 84.226562 L 231.164062 84.226562 C 231.515625 84.226562 231.863281 84.257812 232.207031 84.328125 C 232.550781 84.394531 232.882812 84.496094 233.207031 84.632812 C 233.53125 84.765625 233.839844 84.929688 234.132812 85.125 C 234.425781 85.320312 234.695312 85.542969 234.941406 85.792969 C 235.191406 86.039062 235.410156 86.308594 235.605469 86.601562 C 235.800781 86.894531 235.964844 87.203125 236.101562 87.527344 C 236.234375 87.851562 236.335938 88.183594 236.40625 88.53125 C 236.472656 88.875 236.507812 89.222656 236.507812 89.574219 C 236.507812 89.925781 236.472656 90.273438 236.40625 90.617188 C 236.335938 90.960938 236.234375 91.292969 236.101562 91.621094 C 235.964844 91.945312 235.800781 92.25 235.605469 92.542969 C 235.410156 92.835938 235.191406 93.105469 234.941406 93.355469 C 234.695312 93.601562 234.425781 93.824219 234.132812 94.019531 C 233.839844 94.214844 233.53125 94.378906 233.207031 94.511719 C 232.882812 94.648438 232.550781 94.75 232.207031 94.816406 C 231.863281 94.886719 231.515625 94.921875 231.164062 94.921875 Z M 231.164062 94.921875 " fill-opacity="1" fill-rule="nonzero"/><path fill="#eff2f8" d="M 47.425781 261.179688 L 5.546875 261.179688 C 5.195312 261.179688 4.847656 261.148438 4.503906 261.078125 C 4.160156 261.011719 3.824219 260.910156 3.5 260.773438 C 3.175781 260.640625 2.871094 260.476562 2.578125 260.28125 C 2.285156 260.085938 2.015625 259.863281 1.769531 259.613281 C 1.519531 259.367188 1.296875 259.097656 1.101562 258.804688 C 0.910156 258.511719 0.742188 258.203125 0.609375 257.878906 C 0.476562 257.554688 0.375 257.222656 0.304688 256.878906 C 0.238281 256.53125 0.203125 256.183594 0.203125 255.832031 L 0.203125 215.277344 C 0.203125 214.933594 0.234375 214.589844 0.300781 214.253906 C 0.367188 213.917969 0.464844 213.589844 0.59375 213.269531 C 0.722656 212.949219 0.878906 212.648438 1.066406 212.359375 C 1.253906 212.070312 1.46875 211.804688 1.707031 211.554688 C 1.945312 211.308594 2.207031 211.085938 2.488281 210.890625 C 2.769531 210.695312 3.070312 210.527344 3.382812 210.386719 C 3.695312 210.246094 4.023438 210.140625 4.355469 210.0625 C 4.691406 209.984375 5.03125 209.941406 5.375 209.929688 C 5.871094 209.914062 6.371094 209.90625 6.875 209.90625 C 8.375 209.90625 9.875 209.980469 11.371094 210.128906 C 12.863281 210.28125 14.347656 210.5 15.824219 210.796875 C 17.296875 211.089844 18.753906 211.457031 20.191406 211.894531 C 21.628906 212.332031 23.039062 212.839844 24.429688 213.414062 C 25.816406 213.992188 27.171875 214.632812 28.496094 215.34375 C 29.820312 216.054688 31.109375 216.824219 32.359375 217.660156 C 33.609375 218.496094 34.8125 219.390625 35.972656 220.347656 C 37.136719 221.300781 38.246094 222.308594 39.308594 223.371094 C 40.371094 224.433594 41.378906 225.546875 42.335938 226.710938 C 43.289062 227.871094 44.183594 229.078125 45.015625 230.328125 C 45.851562 231.578125 46.625 232.867188 47.332031 234.191406 C 48.042969 235.519531 48.683594 236.875 49.261719 238.265625 C 49.835938 239.65625 50.34375 241.066406 50.78125 242.507812 C 51.21875 243.945312 51.582031 245.402344 51.878906 246.878906 C 52.171875 248.351562 52.394531 249.835938 52.542969 251.332031 C 52.691406 252.828125 52.765625 254.328125 52.769531 255.832031 C 52.769531 256.183594 52.734375 256.53125 52.664062 256.878906 C 52.597656 257.222656 52.496094 257.554688 52.359375 257.878906 C 52.226562 258.203125 52.0625 258.511719 51.867188 258.804688 C 51.671875 259.097656 51.449219 259.367188 51.203125 259.613281 C 50.953125 259.863281 50.683594 260.085938 50.394531 260.28125 C 50.101562 260.476562 49.792969 260.640625 49.46875 260.773438 C 49.144531 260.910156 48.8125 261.011719 48.464844 261.078125 C 48.121094 261.148438 47.773438 261.179688 47.425781 261.179688 Z M 10.890625 250.484375 L 41.671875 250.484375 C 41.378906 248.589844 40.933594 246.730469 40.335938 244.910156 C 39.742188 243.085938 39 241.324219 38.117188 239.621094 C 37.234375 237.917969 36.21875 236.300781 35.070312 234.761719 C 33.921875 233.226562 32.660156 231.792969 31.277344 230.460938 C 29.898438 229.132812 28.417969 227.921875 26.839844 226.832031 C 25.261719 225.746094 23.605469 224.789062 21.871094 223.972656 C 20.140625 223.152344 18.351562 222.480469 16.507812 221.953125 C 14.664062 221.425781 12.792969 221.050781 10.886719 220.828125 Z M 10.890625 250.484375 " fill-opacity="1" fill-rule="nonzero"/><path fill="#eff2f8" d="M 369.492188 261.179688 L 327.613281 261.179688 C 327.261719 261.179688 326.914062 261.148438 326.570312 261.078125 C 326.226562 261.011719 325.894531 260.910156 325.570312 260.773438 C 325.246094 260.640625 324.9375 260.476562 324.644531 260.28125 C 324.355469 260.085938 324.082031 259.863281 323.835938 259.613281 C 323.585938 259.367188 323.367188 259.097656 323.171875 258.804688 C 322.976562 258.511719 322.8125 258.203125 322.675781 257.878906 C 322.542969 257.554688 322.441406 257.222656 322.375 256.878906 C 322.304688 256.53125 322.269531 256.183594 322.269531 255.832031 C 322.273438 254.328125 322.347656 252.828125 322.496094 251.332031 C 322.644531 249.835938 322.867188 248.351562 323.160156 246.878906 C 323.457031 245.402344 323.820312 243.945312 324.257812 242.507812 C 324.695312 241.066406 325.203125 239.65625 325.777344 238.265625 C 326.355469 236.875 326.996094 235.519531 327.703125 234.191406 C 328.414062 232.867188 329.1875 231.578125 330.019531 230.328125 C 330.855469 229.078125 331.75 227.871094 332.703125 226.710938 C 333.65625 225.546875 334.664062 224.433594 335.726562 223.371094 C 336.789062 222.308594 337.902344 221.300781 339.0625 220.347656 C 340.226562 219.390625 341.429688 218.496094 342.679688 217.660156 C 343.929688 216.824219 345.214844 216.050781 346.539062 215.34375 C 347.867188 214.632812 349.222656 213.992188 350.609375 213.414062 C 351.996094 212.839844 353.410156 212.332031 354.847656 211.894531 C 356.285156 211.457031 357.742188 211.089844 359.214844 210.796875 C 360.6875 210.5 362.171875 210.28125 363.667969 210.128906 C 365.164062 209.980469 366.664062 209.90625 368.164062 209.90625 C 368.667969 209.90625 369.164062 209.914062 369.664062 209.929688 C 370.007812 209.941406 370.347656 209.984375 370.679688 210.0625 C 371.015625 210.140625 371.339844 210.246094 371.65625 210.386719 C 371.96875 210.527344 372.265625 210.695312 372.550781 210.890625 C 372.832031 211.085938 373.089844 211.308594 373.332031 211.554688 C 373.570312 211.804688 373.78125 212.070312 373.96875 212.359375 C 374.15625 212.648438 374.316406 212.949219 374.445312 213.269531 C 374.574219 213.589844 374.671875 213.917969 374.738281 214.253906 C 374.800781 214.589844 374.835938 214.933594 374.835938 215.277344 L 374.835938 255.832031 C 374.835938 256.183594 374.800781 256.53125 374.734375 256.878906 C 374.664062 257.222656 374.5625 257.554688 374.429688 257.878906 C 374.292969 258.203125 374.128906 258.511719 373.933594 258.804688 C 373.738281 259.097656 373.519531 259.367188 373.269531 259.613281 C 373.023438 259.863281 372.753906 260.085938 372.460938 260.28125 C 372.167969 260.476562 371.859375 260.640625 371.535156 260.773438 C 371.210938 260.910156 370.878906 261.011719 370.535156 261.078125 C 370.191406 261.148438 369.84375 261.179688 369.492188 261.179688 Z M 333.363281 250.484375 L 364.148438 250.484375 L 364.148438 220.828125 C 362.246094 221.050781 360.371094 221.425781 358.527344 221.953125 C 356.683594 222.480469 354.898438 223.152344 353.164062 223.972656 C 351.429688 224.789062 349.777344 225.746094 348.199219 226.832031 C 346.621094 227.921875 345.140625 229.132812 343.757812 230.464844 C 342.378906 231.792969 341.113281 233.226562 339.96875 234.761719 C 338.820312 236.300781 337.804688 237.917969 336.921875 239.621094 C 336.035156 241.324219 335.296875 243.085938 334.699219 244.910156 C 334.105469 246.730469 333.660156 248.589844 333.363281 250.484375 Z M 333.363281 250.484375 " fill-opacity="1" fill-rule="nonzero"/><g clip-path="url(#id1)"><path fill="#eff2f8" d="M 6.875 69.128906 C 6.371094 69.128906 5.871094 69.117188 5.375 69.101562 C 5.03125 69.089844 4.691406 69.046875 4.355469 68.96875 C 4.023438 68.894531 3.695312 68.785156 3.382812 68.644531 C 3.070312 68.507812 2.769531 68.339844 2.488281 68.140625 C 2.207031 67.945312 1.945312 67.722656 1.707031 67.476562 C 1.46875 67.230469 1.253906 66.960938 1.066406 66.671875 C 0.878906 66.386719 0.722656 66.082031 0.59375 65.761719 C 0.464844 65.445312 0.367188 65.117188 0.300781 64.777344 C 0.234375 64.441406 0.203125 64.101562 0.203125 63.753906 L 0.203125 22.730469 C 0.203125 22.378906 0.238281 22.03125 0.304688 21.6875 C 0.375 21.34375 0.476562 21.007812 0.609375 20.683594 C 0.742188 20.359375 0.910156 20.050781 1.101562 19.757812 C 1.296875 19.46875 1.519531 19.199219 1.769531 18.949219 C 2.015625 18.699219 2.285156 18.480469 2.578125 18.285156 C 2.871094 18.089844 3.175781 17.925781 3.5 17.789062 C 3.824219 17.65625 4.160156 17.554688 4.503906 17.484375 C 4.847656 17.417969 5.195312 17.382812 5.546875 17.382812 L 47.417969 17.382812 C 47.765625 17.382812 48.113281 17.417969 48.453125 17.484375 C 48.796875 17.550781 49.128906 17.652344 49.453125 17.785156 C 49.773438 17.917969 50.082031 18.082031 50.371094 18.273438 C 50.660156 18.464844 50.929688 18.683594 51.179688 18.929688 C 51.425781 19.175781 51.648438 19.445312 51.84375 19.734375 C 52.039062 20.023438 52.203125 20.328125 52.339844 20.648438 C 52.476562 20.96875 52.578125 21.300781 52.652344 21.644531 C 52.722656 21.984375 52.757812 22.332031 52.761719 22.679688 L 52.765625 22.824219 C 52.765625 22.949219 52.769531 23.074219 52.769531 23.195312 C 52.765625 24.699219 52.691406 26.199219 52.542969 27.699219 C 52.394531 29.195312 52.171875 30.679688 51.878906 32.152344 C 51.582031 33.628906 51.21875 35.085938 50.78125 36.523438 C 50.34375 37.964844 49.835938 39.375 49.261719 40.765625 C 48.683594 42.15625 48.042969 43.511719 47.335938 44.839844 C 46.625 46.164062 45.851562 47.453125 45.019531 48.703125 C 44.183594 49.953125 43.289062 51.160156 42.335938 52.320312 C 41.382812 53.484375 40.375 54.597656 39.3125 55.660156 C 38.25 56.722656 37.136719 57.730469 35.976562 58.6875 C 34.8125 59.640625 33.609375 60.535156 32.359375 61.371094 C 31.109375 62.207031 29.824219 62.980469 28.496094 63.6875 C 27.171875 64.398438 25.816406 65.042969 24.429688 65.617188 C 23.039062 66.195312 21.628906 66.699219 20.191406 67.136719 C 18.753906 67.574219 17.296875 67.941406 15.824219 68.238281 C 14.351562 68.53125 12.867188 68.753906 11.371094 68.902344 C 9.875 69.050781 8.375 69.125 6.875 69.128906 Z M 10.890625 28.078125 L 10.890625 58.203125 C 11.851562 58.09375 12.804688 57.941406 13.75 57.75 C 14.699219 57.558594 15.636719 57.332031 16.566406 57.0625 C 17.496094 56.796875 18.410156 56.492188 19.316406 56.148438 C 20.21875 55.804688 21.109375 55.425781 21.980469 55.011719 C 22.851562 54.59375 23.707031 54.144531 24.542969 53.65625 C 25.378906 53.171875 26.191406 52.652344 26.984375 52.097656 C 27.777344 51.542969 28.546875 50.960938 29.292969 50.34375 C 30.039062 49.726562 30.757812 49.082031 31.449219 48.40625 C 32.140625 47.730469 32.804688 47.027344 33.4375 46.296875 C 34.070312 45.566406 34.675781 44.8125 35.246094 44.03125 C 35.820312 43.253906 36.359375 42.449219 36.863281 41.625 C 37.371094 40.804688 37.84375 39.960938 38.277344 39.097656 C 38.714844 38.234375 39.117188 37.355469 39.480469 36.457031 C 39.847656 35.5625 40.175781 34.652344 40.464844 33.730469 C 40.753906 32.808594 41.007812 31.875 41.21875 30.933594 C 41.433594 29.988281 41.609375 29.039062 41.742188 28.078125 Z M 10.890625 28.078125 " fill-opacity="1" fill-rule="nonzero"/></g><g clip-path="url(#id2)"><path fill="#eff2f8" d="M 368.164062 69.128906 C 366.664062 69.125 365.164062 69.050781 363.667969 68.902344 C 362.171875 68.753906 360.6875 68.53125 359.214844 68.238281 C 357.742188 67.941406 356.285156 67.574219 354.847656 67.136719 C 353.410156 66.699219 351.996094 66.195312 350.609375 65.617188 C 349.222656 65.042969 347.867188 64.398438 346.539062 63.6875 C 345.214844 62.980469 343.929688 62.207031 342.679688 61.371094 C 341.429688 60.535156 340.226562 59.640625 339.0625 58.6875 C 337.902344 57.730469 336.789062 56.722656 335.726562 55.660156 C 334.664062 54.597656 333.65625 53.484375 332.703125 52.320312 C 331.75 51.160156 330.855469 49.953125 330.019531 48.703125 C 329.1875 47.453125 328.414062 46.164062 327.703125 44.839844 C 326.996094 43.511719 326.355469 42.15625 325.777344 40.765625 C 325.203125 39.378906 324.695312 37.964844 324.257812 36.523438 C 323.820312 35.085938 323.457031 33.628906 323.160156 32.15625 C 322.867188 30.679688 322.644531 29.195312 322.496094 27.699219 C 322.347656 26.203125 322.273438 24.703125 322.269531 23.199219 C 322.269531 23.074219 322.269531 22.949219 322.273438 22.824219 L 322.277344 22.679688 C 322.28125 22.332031 322.316406 21.984375 322.386719 21.644531 C 322.460938 21.304688 322.5625 20.972656 322.699219 20.648438 C 322.835938 20.328125 323 20.023438 323.195312 19.734375 C 323.390625 19.445312 323.613281 19.179688 323.859375 18.933594 C 324.109375 18.6875 324.378906 18.46875 324.667969 18.273438 C 324.957031 18.082031 325.265625 17.917969 325.585938 17.785156 C 325.910156 17.652344 326.242188 17.554688 326.585938 17.484375 C 326.925781 17.417969 327.273438 17.382812 327.621094 17.382812 L 369.492188 17.382812 C 369.84375 17.382812 370.191406 17.417969 370.535156 17.488281 C 370.878906 17.554688 371.214844 17.65625 371.539062 17.792969 C 371.863281 17.925781 372.167969 18.089844 372.460938 18.285156 C 372.753906 18.480469 373.023438 18.703125 373.269531 18.949219 C 373.519531 19.199219 373.742188 19.46875 373.9375 19.761719 C 374.128906 20.050781 374.296875 20.359375 374.429688 20.683594 C 374.5625 21.007812 374.664062 21.34375 374.734375 21.6875 C 374.800781 22.03125 374.835938 22.378906 374.835938 22.730469 L 374.835938 63.757812 C 374.835938 64.101562 374.804688 64.441406 374.738281 64.777344 C 374.671875 65.117188 374.574219 65.445312 374.445312 65.761719 C 374.316406 66.082031 374.160156 66.386719 373.972656 66.675781 C 373.785156 66.960938 373.570312 67.230469 373.332031 67.476562 C 373.09375 67.722656 372.832031 67.945312 372.550781 68.144531 C 372.269531 68.339844 371.96875 68.507812 371.65625 68.648438 C 371.339844 68.785156 371.015625 68.894531 370.683594 68.96875 C 370.347656 69.046875 370.007812 69.089844 369.664062 69.101562 C 369.167969 69.117188 368.667969 69.128906 368.164062 69.128906 Z M 333.292969 28.078125 C 333.429688 29.039062 333.605469 29.988281 333.816406 30.933594 C 334.03125 31.875 334.285156 32.808594 334.574219 33.730469 C 334.863281 34.652344 335.191406 35.5625 335.554688 36.457031 C 335.921875 37.355469 336.320312 38.234375 336.757812 39.097656 C 337.195312 39.960938 337.667969 40.804688 338.175781 41.625 C 338.679688 42.449219 339.21875 43.253906 339.792969 44.03125 C 340.363281 44.8125 340.96875 45.566406 341.601562 46.296875 C 342.234375 47.027344 342.898438 47.730469 343.589844 48.40625 C 344.28125 49.082031 345 49.726562 345.746094 50.34375 C 346.492188 50.960938 347.257812 51.542969 348.050781 52.097656 C 348.84375 52.652344 349.660156 53.171875 350.496094 53.65625 C 351.332031 54.144531 352.183594 54.59375 353.058594 55.011719 C 353.929688 55.425781 354.820312 55.804688 355.722656 56.148438 C 356.625 56.492188 357.542969 56.796875 358.472656 57.0625 C 359.398438 57.332031 360.339844 57.558594 361.285156 57.75 C 362.234375 57.941406 363.1875 58.09375 364.148438 58.203125 L 364.148438 28.078125 Z M 333.292969 28.078125 " fill-opacity="1" fill-rule="nonzero"/></g><path fill="#eff2f8" d="M 209.628906 261.179688 C 207.382812 260.808594 205.210938 260.613281 203.324219 261.117188 C 203.257812 261.136719 203.1875 261.160156 203.117188 261.179688 Z M 209.628906 261.179688 " fill-opacity="1" fill-rule="nonzero"/><path fill="#eff2f8" d="M 171.246094 261.179688 C 171.175781 261.160156 171.105469 261.136719 171.039062 261.117188 C 169.152344 260.613281 166.976562 260.808594 164.734375 261.179688 Z M 171.246094 261.179688 " fill-opacity="1" fill-rule="nonzero"/><g clip-path="url(#id3)"><path fill="#eff2f8" d="M 369.492188 17.382812 L 5.546875 17.382812 C 5.195312 17.382812 4.847656 17.417969 4.503906 17.488281 C 4.160156 17.554688 3.824219 17.65625 3.5 17.792969 C 3.175781 17.925781 2.871094 18.089844 2.578125 18.285156 C 2.285156 18.480469 2.015625 18.703125 1.769531 18.949219 C 1.519531 19.199219 1.296875 19.46875 1.101562 19.761719 C 0.910156 20.054688 0.742188 20.359375 0.609375 20.6875 C 0.476562 21.011719 0.375 21.34375 0.304688 21.6875 C 0.238281 22.035156 0.203125 22.382812 0.203125 22.730469 L 0.203125 255.832031 C 0.203125 256.183594 0.238281 256.53125 0.304688 256.878906 C 0.375 257.222656 0.476562 257.554688 0.609375 257.878906 C 0.742188 258.203125 0.910156 258.511719 1.101562 258.804688 C 1.296875 259.097656 1.519531 259.367188 1.769531 259.613281 C 2.015625 259.863281 2.285156 260.085938 2.578125 260.28125 C 2.871094 260.476562 3.175781 260.640625 3.5 260.773438 C 3.824219 260.910156 4.160156 261.011719 4.503906 261.078125 C 4.847656 261.148438 5.195312 261.179688 5.546875 261.179688 L 151.695312 261.179688 C 148.742188 259.082031 147.65625 254.511719 146.171875 250.484375 L 10.890625 250.484375 L 10.890625 28.078125 L 364.148438 28.078125 L 364.148438 250.484375 L 228.1875 250.484375 C 226.703125 254.511719 225.621094 259.082031 222.664062 261.179688 L 369.492188 261.179688 C 369.84375 261.179688 370.191406 261.148438 370.535156 261.078125 C 370.878906 261.011719 371.210938 260.910156 371.535156 260.773438 C 371.859375 260.640625 372.167969 260.476562 372.460938 260.28125 C 372.753906 260.085938 373.023438 259.863281 373.269531 259.613281 C 373.519531 259.367188 373.738281 259.097656 373.933594 258.804688 C 374.128906 258.511719 374.292969 258.203125 374.429688 257.878906 C 374.5625 257.554688 374.664062 257.222656 374.734375 256.878906 C 374.800781 256.53125 374.835938 256.183594 374.835938 255.832031 L 374.835938 22.730469 C 374.835938 22.382812 374.800781 22.035156 374.734375 21.6875 C 374.664062 21.34375 374.5625 21.011719 374.429688 20.6875 C 374.292969 20.359375 374.128906 20.054688 373.933594 19.761719 C 373.738281 19.46875 373.519531 19.199219 373.269531 18.949219 C 373.023438 18.703125 372.753906 18.480469 372.460938 18.285156 C 372.167969 18.089844 371.859375 17.925781 371.535156 17.792969 C 371.210938 17.65625 370.878906 17.554688 370.535156 17.488281 C 370.191406 17.417969 369.84375 17.382812 369.492188 17.382812 Z M 369.492188 17.382812 " fill-opacity="1" fill-rule="nonzero"/></g><path fill="#eff2f8" d="M 187.179688 276.214844 C 181.886719 276.214844 177.820312 272.667969 174.554688 269.8125 C 172.835938 268.3125 170.886719 266.613281 169.65625 266.285156 C 168.289062 265.917969 165.65625 266.425781 163.332031 266.875 C 158.933594 267.730469 153.945312 268.695312 149.507812 266.121094 C 145.011719 263.519531 143.351562 258.671875 141.886719 254.402344 C 141.128906 252.191406 140.269531 249.691406 139.316406 248.734375 C 138.359375 247.777344 135.859375 246.917969 133.652344 246.164062 C 129.382812 244.695312 124.542969 243.035156 121.941406 238.535156 C 119.371094 234.089844 120.335938 229.101562 121.1875 224.699219 C 121.636719 222.375 122.144531 219.738281 121.777344 218.371094 C 121.449219 217.136719 119.75 215.1875 118.25 213.46875 C 115.402344 210.199219 111.855469 206.128906 111.855469 200.832031 C 111.855469 195.53125 115.402344 191.464844 118.25 188.195312 C 119.75 186.476562 121.449219 184.527344 121.777344 183.292969 C 122.144531 181.925781 121.636719 179.289062 121.1875 176.964844 C 120.335938 172.5625 119.371094 167.570312 121.941406 163.128906 C 124.542969 158.628906 129.382812 156.96875 133.652344 155.5 C 135.859375 154.742188 138.359375 153.886719 139.316406 152.929688 C 140.269531 151.972656 141.128906 149.46875 141.886719 147.261719 C 143.351562 142.988281 145.011719 138.144531 149.507812 135.539062 C 153.945312 132.96875 158.933594 133.9375 163.332031 134.785156 C 165.65625 135.234375 168.289062 135.746094 169.65625 135.378906 C 170.886719 135.050781 172.835938 133.351562 174.554688 131.847656 C 177.820312 128.996094 181.886719 125.445312 187.183594 125.445312 C 192.476562 125.445312 196.542969 128.996094 199.808594 131.847656 C 201.527344 133.347656 203.476562 135.050781 204.707031 135.378906 C 206.074219 135.746094 208.707031 135.234375 211.027344 134.785156 C 215.429688 133.933594 220.417969 132.96875 224.855469 135.539062 C 229.351562 138.144531 231.011719 142.988281 232.476562 147.261719 C 233.234375 149.46875 234.09375 151.972656 235.046875 152.929688 C 236.003906 153.886719 238.503906 154.742188 240.710938 155.5 C 244.980469 156.96875 249.820312 158.628906 252.421875 163.128906 C 254.992188 167.570312 254.027344 172.5625 253.175781 176.964844 C 252.726562 179.289062 252.21875 181.925781 252.585938 183.292969 C 252.914062 184.523438 254.613281 186.472656 256.113281 188.195312 C 258.960938 191.464844 262.507812 195.53125 262.507812 200.832031 C 262.507812 206.128906 258.960938 210.199219 256.113281 213.46875 C 254.613281 215.1875 252.914062 217.136719 252.585938 218.367188 C 252.21875 219.738281 252.726562 222.371094 253.175781 224.695312 C 254.027344 229.101562 254.992188 234.089844 252.421875 238.535156 C 249.820312 243.035156 244.980469 244.695312 240.710938 246.160156 C 238.503906 246.917969 236.003906 247.777344 235.046875 248.734375 C 234.089844 249.691406 233.234375 252.191406 232.476562 254.398438 C 231.011719 258.671875 229.351562 263.519531 224.855469 266.121094 C 220.414062 268.691406 215.429688 267.726562 211.027344 266.875 C 208.707031 266.425781 206.074219 265.917969 204.707031 266.285156 C 203.476562 266.613281 201.527344 268.3125 199.808594 269.8125 C 196.542969 272.667969 192.476562 276.214844 187.179688 276.214844 Z M 168.46875 255.464844 C 169.804688 255.453125 171.121094 255.613281 172.417969 255.949219 C 176.042969 256.921875 178.984375 259.488281 181.578125 261.753906 C 183.398438 263.34375 185.894531 265.519531 187.179688 265.519531 C 188.46875 265.519531 190.964844 263.339844 192.785156 261.753906 C 195.378906 259.488281 198.316406 256.921875 201.945312 255.949219 C 205.691406 254.949219 209.601562 255.707031 213.058594 256.375 C 215.234375 256.792969 218.519531 257.433594 219.503906 256.863281 C 220.539062 256.265625 221.59375 253.179688 222.367188 250.929688 C 223.5 247.625 224.78125 243.878906 227.488281 241.171875 C 230.191406 238.464844 233.9375 237.179688 237.238281 236.042969 C 239.488281 235.273438 242.570312 234.214844 243.167969 233.179688 C 243.738281 232.195312 243.101562 228.90625 242.679688 226.726562 C 242.011719 223.273438 241.253906 219.355469 242.253906 215.609375 C 243.226562 211.980469 245.792969 209.035156 248.054688 206.441406 C 249.644531 204.617188 251.816406 202.125 251.816406 200.832031 C 251.816406 199.542969 249.640625 197.050781 248.054688 195.226562 C 245.792969 192.628906 243.226562 189.6875 242.253906 186.058594 C 241.253906 182.3125 242.011719 178.394531 242.679688 174.9375 C 243.101562 172.761719 243.738281 169.472656 243.167969 168.488281 C 242.570312 167.453125 239.488281 166.394531 237.238281 165.625 C 233.9375 164.488281 230.191406 163.203125 227.488281 160.496094 C 224.78125 157.789062 223.5 154.042969 222.367188 150.738281 C 221.59375 148.488281 220.535156 145.402344 219.503906 144.804688 C 218.519531 144.234375 215.234375 144.871094 213.058594 145.292969 C 209.601562 145.960938 205.6875 146.71875 201.945312 145.71875 C 198.316406 144.746094 195.375 142.179688 192.785156 139.914062 C 190.964844 138.324219 188.46875 136.148438 187.179688 136.148438 C 185.894531 136.148438 183.398438 138.324219 181.578125 139.914062 C 178.984375 142.179688 176.042969 144.746094 172.417969 145.71875 C 168.675781 146.71875 164.761719 145.960938 161.304688 145.292969 C 159.128906 144.871094 155.84375 144.234375 154.859375 144.804688 C 153.824219 145.402344 152.769531 148.488281 151.996094 150.738281 C 150.863281 154.042969 149.582031 157.789062 146.875 160.496094 C 144.171875 163.203125 140.425781 164.488281 137.125 165.625 C 134.875 166.394531 131.792969 167.453125 131.195312 168.488281 C 130.625 169.472656 131.261719 172.761719 131.683594 174.9375 C 132.351562 178.394531 133.105469 182.3125 132.105469 186.058594 C 131.136719 189.6875 128.570312 192.632812 126.308594 195.230469 C 124.71875 197.050781 122.542969 199.546875 122.542969 200.835938 C 122.542969 202.125 124.71875 204.621094 126.308594 206.441406 C 128.570312 209.039062 131.136719 211.984375 132.105469 215.613281 C 133.105469 219.359375 132.351562 223.277344 131.683594 226.734375 C 131.261719 228.910156 130.625 232.199219 131.195312 233.183594 C 131.792969 234.21875 134.875 235.277344 137.125 236.046875 C 140.425781 237.183594 144.171875 238.46875 146.875 241.175781 C 149.582031 243.882812 150.863281 247.628906 151.996094 250.933594 C 152.769531 253.183594 153.824219 256.269531 154.859375 256.867188 C 155.839844 257.433594 159.128906 256.800781 161.304688 256.378906 C 163.554688 255.941406 166 255.464844 168.46875 255.464844 Z M 168.46875 255.464844 " fill-opacity="1" fill-rule="nonzero"/><path fill="#eff2f8" d="M 187.179688 248.085938 C 185.636719 248.085938 184.09375 248.007812 182.554688 247.855469 C 181.015625 247.707031 179.488281 247.480469 177.96875 247.175781 C 176.453125 246.875 174.957031 246.5 173.476562 246.050781 C 171.996094 245.601562 170.542969 245.082031 169.113281 244.488281 C 167.683594 243.894531 166.289062 243.234375 164.925781 242.503906 C 163.558594 241.777344 162.234375 240.980469 160.949219 240.121094 C 159.664062 239.261719 158.421875 238.339844 157.226562 237.359375 C 156.03125 236.378906 154.886719 235.339844 153.792969 234.246094 C 152.703125 233.152344 151.664062 232.003906 150.683594 230.808594 C 149.703125 229.613281 148.78125 228.371094 147.921875 227.085938 C 147.0625 225.796875 146.269531 224.472656 145.539062 223.109375 C 144.8125 221.742188 144.152344 220.34375 143.558594 218.914062 C 142.96875 217.484375 142.449219 216.03125 142 214.550781 C 141.550781 213.070312 141.175781 211.570312 140.871094 210.050781 C 140.570312 208.535156 140.34375 207.003906 140.191406 205.464844 C 140.042969 203.925781 139.964844 202.382812 139.964844 200.832031 C 139.964844 199.285156 140.042969 197.742188 140.191406 196.203125 C 140.34375 194.660156 140.570312 193.132812 140.871094 191.613281 C 141.175781 190.097656 141.550781 188.597656 142 187.117188 C 142.449219 185.636719 142.96875 184.179688 143.558594 182.75 C 144.152344 181.320312 144.8125 179.925781 145.539062 178.558594 C 146.269531 177.195312 147.0625 175.867188 147.921875 174.582031 C 148.78125 173.296875 149.703125 172.054688 150.683594 170.859375 C 151.664062 169.660156 152.703125 168.515625 153.792969 167.421875 C 154.886719 166.328125 156.03125 165.289062 157.226562 164.308594 C 158.421875 163.324219 159.664062 162.40625 160.949219 161.546875 C 162.234375 160.6875 163.558594 159.890625 164.925781 159.160156 C 166.289062 158.433594 167.683594 157.769531 169.113281 157.179688 C 170.542969 156.585938 171.996094 156.066406 173.476562 155.617188 C 174.957031 155.167969 176.453125 154.792969 177.96875 154.488281 C 179.488281 154.1875 181.015625 153.960938 182.554688 153.808594 C 184.09375 153.65625 185.636719 153.582031 187.179688 153.582031 C 188.726562 153.582031 190.269531 153.65625 191.808594 153.808594 C 193.347656 153.960938 194.875 154.1875 196.390625 154.488281 C 197.910156 154.792969 199.40625 155.167969 200.886719 155.617188 C 202.367188 156.066406 203.820312 156.585938 205.25 157.179688 C 206.679688 157.769531 208.074219 158.433594 209.4375 159.160156 C 210.800781 159.890625 212.128906 160.6875 213.414062 161.546875 C 214.699219 162.40625 215.9375 163.324219 217.132812 164.308594 C 218.328125 165.289062 219.472656 166.328125 220.566406 167.421875 C 221.660156 168.515625 222.699219 169.660156 223.679688 170.859375 C 224.660156 172.054688 225.582031 173.296875 226.441406 174.582031 C 227.296875 175.867188 228.09375 177.195312 228.820312 178.558594 C 229.550781 179.925781 230.210938 181.320312 230.804688 182.75 C 231.394531 184.179688 231.914062 185.636719 232.363281 187.117188 C 232.8125 188.597656 233.1875 190.097656 233.488281 191.613281 C 233.792969 193.132812 234.019531 194.660156 234.167969 196.203125 C 234.320312 197.742188 234.398438 199.285156 234.398438 200.832031 C 234.394531 202.378906 234.316406 203.921875 234.164062 205.464844 C 234.011719 207.003906 233.785156 208.53125 233.480469 210.046875 C 233.175781 211.566406 232.800781 213.0625 232.351562 214.542969 C 231.902344 216.023438 231.378906 217.476562 230.789062 218.90625 C 230.195312 220.335938 229.535156 221.734375 228.804688 223.097656 C 228.078125 224.460938 227.28125 225.785156 226.421875 227.070312 C 225.5625 228.359375 224.644531 229.597656 223.664062 230.792969 C 222.683594 231.992188 221.644531 233.136719 220.550781 234.230469 C 219.457031 235.324219 218.316406 236.359375 217.121094 237.34375 C 215.925781 238.324219 214.683594 239.246094 213.398438 240.105469 C 212.113281 240.964844 210.789062 241.757812 209.429688 242.488281 C 208.066406 243.21875 206.667969 243.878906 205.242188 244.472656 C 203.8125 245.066406 202.359375 245.585938 200.882812 246.039062 C 199.402344 246.488281 197.90625 246.863281 196.390625 247.167969 C 194.871094 247.472656 193.347656 247.699219 191.808594 247.851562 C 190.269531 248.003906 188.726562 248.082031 187.179688 248.085938 Z M 187.179688 164.273438 C 185.984375 164.273438 184.792969 164.332031 183.601562 164.449219 C 182.410156 164.570312 181.226562 164.742188 180.054688 164.976562 C 178.882812 165.210938 177.722656 165.5 176.578125 165.847656 C 175.433594 166.195312 174.308594 166.597656 173.203125 167.058594 C 172.097656 167.515625 171.015625 168.027344 169.960938 168.589844 C 168.90625 169.15625 167.882812 169.769531 166.886719 170.4375 C 165.894531 171.101562 164.933594 171.8125 164.007812 172.574219 C 163.082031 173.332031 162.199219 174.136719 161.351562 174.980469 C 160.507812 175.828125 159.703125 176.714844 158.945312 177.640625 C 158.1875 178.566406 157.472656 179.527344 156.808594 180.523438 C 156.144531 181.515625 155.53125 182.542969 154.964844 183.597656 C 154.402344 184.65625 153.890625 185.734375 153.433594 186.839844 C 152.976562 187.949219 152.574219 189.074219 152.226562 190.21875 C 151.878906 191.363281 151.589844 192.523438 151.355469 193.699219 C 151.121094 194.875 150.945312 196.054688 150.828125 197.246094 C 150.710938 198.4375 150.652344 199.632812 150.652344 200.832031 C 150.652344 202.027344 150.710938 203.222656 150.828125 204.414062 C 150.945312 205.605469 151.121094 206.789062 151.355469 207.960938 C 151.589844 209.136719 151.878906 210.296875 152.226562 211.441406 C 152.574219 212.589844 152.976562 213.714844 153.433594 214.820312 C 153.890625 215.925781 154.402344 217.007812 154.964844 218.0625 C 155.53125 219.117188 156.144531 220.144531 156.808594 221.140625 C 157.472656 222.136719 158.1875 223.097656 158.945312 224.023438 C 159.703125 224.945312 160.507812 225.832031 161.351562 226.679688 C 162.199219 227.527344 163.082031 228.328125 164.007812 229.089844 C 164.933594 229.847656 165.894531 230.5625 166.886719 231.226562 C 167.882812 231.890625 168.90625 232.503906 169.960938 233.070312 C 171.015625 233.632812 172.097656 234.144531 173.203125 234.605469 C 174.308594 235.0625 175.433594 235.464844 176.578125 235.8125 C 177.722656 236.160156 178.882812 236.449219 180.054688 236.683594 C 181.226562 236.917969 182.410156 237.09375 183.601562 237.210938 C 184.792969 237.328125 185.984375 237.386719 187.179688 237.386719 C 188.378906 237.386719 189.570312 237.328125 190.761719 237.210938 C 191.953125 237.09375 193.132812 236.917969 194.308594 236.683594 C 195.480469 236.449219 196.640625 236.160156 197.785156 235.8125 C 198.929688 235.464844 200.054688 235.0625 201.160156 234.605469 C 202.265625 234.144531 203.34375 233.632812 204.402344 233.070312 C 205.457031 232.503906 206.480469 231.890625 207.476562 231.226562 C 208.46875 230.5625 209.429688 229.847656 210.355469 229.089844 C 211.28125 228.328125 212.164062 227.527344 213.011719 226.679688 C 213.855469 225.832031 214.660156 224.945312 215.417969 224.023438 C 216.175781 223.097656 216.886719 222.136719 217.554688 221.140625 C 218.21875 220.144531 218.832031 219.117188 219.394531 218.0625 C 219.960938 217.007812 220.472656 215.925781 220.929688 214.820312 C 221.386719 213.714844 221.789062 212.589844 222.136719 211.441406 C 222.484375 210.296875 222.773438 209.136719 223.007812 207.960938 C 223.242188 206.789062 223.417969 205.605469 223.535156 204.414062 C 223.652344 203.222656 223.710938 202.027344 223.710938 200.832031 C 223.707031 199.632812 223.648438 198.441406 223.53125 197.25 C 223.410156 196.058594 223.234375 194.875 223 193.703125 C 222.765625 192.527344 222.476562 191.367188 222.128906 190.222656 C 221.777344 189.078125 221.375 187.953125 220.917969 186.847656 C 220.460938 185.742188 219.949219 184.664062 219.382812 183.605469 C 218.820312 182.550781 218.203125 181.527344 217.539062 180.53125 C 216.875 179.535156 216.164062 178.578125 215.40625 177.652344 C 214.644531 176.726562 213.84375 175.839844 213 174.996094 C 212.152344 174.148438 211.265625 173.34375 210.34375 172.585938 C 209.417969 171.828125 208.460938 171.113281 207.464844 170.449219 C 206.472656 169.785156 205.445312 169.167969 204.390625 168.605469 C 203.335938 168.039062 202.257812 167.527344 201.152344 167.070312 C 200.046875 166.609375 198.925781 166.207031 197.78125 165.859375 C 196.636719 165.511719 195.476562 165.21875 194.304688 164.984375 C 193.132812 164.75 191.949219 164.574219 190.761719 164.453125 C 189.570312 164.335938 188.378906 164.277344 187.179688 164.273438 Z M 187.179688 164.273438 " fill-opacity="1" fill-rule="nonzero"/><g clip-path="url(#id4)"><path fill="#eff2f8" d="M 149.359375 357.550781 C 149.007812 357.550781 148.660156 357.519531 148.316406 357.449219 C 147.972656 357.378906 147.636719 357.277344 147.3125 357.144531 C 146.988281 357.011719 146.679688 356.847656 146.390625 356.652344 C 146.097656 356.457031 145.828125 356.234375 145.578125 355.984375 C 145.332031 355.738281 145.109375 355.46875 144.914062 355.175781 C 144.71875 354.882812 144.554688 354.574219 144.421875 354.25 C 144.285156 353.925781 144.183594 353.59375 144.117188 353.246094 C 144.046875 352.902344 144.015625 352.554688 144.015625 352.203125 L 144.015625 258.496094 C 144.015625 257.90625 144.109375 257.335938 144.296875 256.78125 C 144.484375 256.226562 144.753906 255.714844 145.109375 255.25 C 145.46875 254.78125 145.886719 254.386719 146.375 254.058594 C 146.859375 253.730469 147.386719 253.488281 147.953125 253.335938 C 148.515625 253.179688 149.09375 253.121094 149.675781 253.15625 C 150.261719 253.191406 150.828125 253.320312 151.371094 253.539062 C 151.914062 253.761719 152.40625 254.0625 152.851562 254.445312 C 153.292969 254.832031 153.664062 255.273438 153.960938 255.78125 C 154.171875 256.214844 154.46875 256.578125 154.859375 256.863281 C 155.839844 257.433594 159.128906 256.796875 161.304688 256.375 C 164.757812 255.707031 168.671875 254.949219 172.417969 255.953125 C 176.042969 256.921875 178.984375 259.488281 181.578125 261.753906 C 183.398438 263.34375 185.894531 265.519531 187.179688 265.519531 C 188.46875 265.519531 190.964844 263.34375 192.785156 261.753906 C 195.378906 259.488281 198.316406 256.921875 201.945312 255.953125 C 205.691406 254.949219 209.601562 255.707031 213.058594 256.375 C 215.230469 256.796875 218.519531 257.433594 219.503906 256.867188 C 219.679688 256.761719 220.167969 256.367188 220.847656 254.929688 C 221.105469 254.382812 221.449219 253.890625 221.875 253.457031 C 222.300781 253.027344 222.789062 252.675781 223.332031 252.410156 C 223.878906 252.144531 224.453125 251.976562 225.054688 251.90625 C 225.660156 251.835938 226.257812 251.867188 226.847656 252 C 227.441406 252.132812 227.992188 252.359375 228.507812 252.679688 C 229.023438 253.003906 229.46875 253.402344 229.851562 253.875 C 230.230469 254.347656 230.519531 254.871094 230.71875 255.445312 C 230.921875 256.019531 231.019531 256.609375 231.019531 257.214844 L 231.019531 352.207031 C 231.023438 352.695312 230.957031 353.171875 230.824219 353.640625 C 230.695312 354.113281 230.503906 354.554688 230.25 354.972656 C 229.996094 355.390625 229.695312 355.765625 229.339844 356.101562 C 228.984375 356.4375 228.589844 356.714844 228.15625 356.941406 C 227.726562 357.167969 227.273438 357.332031 226.792969 357.433594 C 226.316406 357.539062 225.835938 357.574219 225.347656 357.542969 C 224.863281 357.511719 224.390625 357.417969 223.929688 357.257812 C 223.46875 357.097656 223.035156 356.878906 222.636719 356.601562 L 187.394531 332.1875 L 152.410156 356.59375 C 151.496094 357.230469 150.476562 357.550781 149.359375 357.550781 Z M 187.386719 320.324219 C 188.5 320.324219 189.511719 320.640625 190.429688 321.277344 L 220.335938 341.996094 L 220.335938 267.640625 C 217.199219 268.070312 213.980469 267.449219 211.027344 266.878906 C 208.707031 266.429688 206.074219 265.917969 204.707031 266.285156 C 203.476562 266.613281 201.527344 268.316406 199.808594 269.816406 C 196.542969 272.667969 192.476562 276.21875 187.179688 276.21875 C 181.886719 276.21875 177.820312 272.667969 174.554688 269.816406 C 172.835938 268.316406 170.886719 266.613281 169.65625 266.285156 C 168.289062 265.917969 165.65625 266.429688 163.335938 266.878906 C 160.59375 267.410156 157.625 267.980469 154.703125 267.71875 L 154.703125 341.957031 L 184.332031 321.285156 C 185.25 320.644531 186.265625 320.324219 187.386719 320.328125 Z M 187.386719 320.324219 " fill-opacity="1" fill-rule="nonzero"/></g></svg>