<svg xmlns="http://www.w3.org/2000/svg" xmlns:xlink="http://www.w3.org/1999/xlink" width="500" zoomAndPan="magnify" viewBox="0 0 375 374.999991" height="500" preserveAspectRatio="xMidYMid meet" version="1.0"><path fill="#eff2f8" d="M 358.695312 65.21875 L 269.023438 65.21875 L 269.023438 63.015625 C 269.019531 60.953125 268.914062 58.894531 268.710938 56.84375 C 268.507812 54.789062 268.203125 52.75 267.796875 50.726562 C 267.394531 48.703125 266.890625 46.707031 266.289062 44.734375 C 265.691406 42.757812 264.992188 40.820312 264.203125 38.914062 C 263.414062 37.007812 262.53125 35.144531 261.558594 33.328125 C 260.582031 31.507812 259.523438 29.742188 258.375 28.027344 C 257.230469 26.308594 256 24.65625 254.691406 23.0625 C 253.382812 21.464844 252 19.941406 250.539062 18.480469 C 249.082031 17.023438 247.554688 15.636719 245.960938 14.328125 C 244.367188 13.019531 242.710938 11.792969 240.996094 10.644531 C 239.28125 9.5 237.515625 8.4375 235.695312 7.464844 C 233.875 6.492188 232.011719 5.609375 230.109375 4.820312 C 228.203125 4.027344 226.261719 3.332031 224.289062 2.730469 C 222.316406 2.132812 220.316406 1.628906 218.292969 1.222656 C 216.269531 0.820312 214.234375 0.515625 212.179688 0.3125 C 210.125 0.105469 208.070312 0.00390625 206.003906 0 L 168.996094 0 C 166.929688 0.00390625 164.875 0.105469 162.820312 0.3125 C 160.765625 0.515625 158.730469 0.820312 156.707031 1.222656 C 154.683594 1.628906 152.683594 2.132812 150.710938 2.730469 C 148.738281 3.332031 146.796875 4.027344 144.890625 4.820312 C 142.984375 5.609375 141.125 6.492188 139.304688 7.464844 C 137.484375 8.4375 135.71875 9.5 134.003906 10.644531 C 132.289062 11.792969 130.632812 13.019531 129.039062 14.328125 C 127.445312 15.636719 125.917969 17.023438 124.460938 18.480469 C 123 19.941406 121.617188 21.464844 120.308594 23.0625 C 119 24.65625 117.769531 26.308594 116.625 28.027344 C 115.476562 29.742188 114.417969 31.507812 113.441406 33.328125 C 112.46875 35.144531 111.585938 37.007812 110.796875 38.914062 C 110.007812 40.820312 109.308594 42.757812 108.710938 44.734375 C 108.109375 46.707031 107.605469 48.703125 107.203125 50.726562 C 106.796875 52.75 106.492188 54.789062 106.289062 56.84375 C 106.085938 58.894531 105.980469 60.953125 105.976562 63.015625 L 105.976562 65.21875 L 16.304688 65.21875 C 15.769531 65.21875 15.238281 65.242188 14.707031 65.296875 C 14.175781 65.347656 13.648438 65.425781 13.125 65.53125 C 12.601562 65.636719 12.082031 65.765625 11.570312 65.917969 C 11.058594 66.074219 10.558594 66.253906 10.066406 66.457031 C 9.570312 66.664062 9.089844 66.890625 8.617188 67.144531 C 8.148438 67.394531 7.691406 67.667969 7.246094 67.964844 C 6.800781 68.261719 6.375 68.578125 5.960938 68.917969 C 5.546875 69.257812 5.152344 69.617188 4.777344 69.992188 C 4.398438 70.371094 4.039062 70.765625 3.699219 71.179688 C 3.363281 71.589844 3.042969 72.019531 2.746094 72.464844 C 2.449219 72.90625 2.175781 73.363281 1.925781 73.835938 C 1.671875 74.308594 1.445312 74.789062 1.242188 75.28125 C 1.035156 75.777344 0.855469 76.277344 0.703125 76.789062 C 0.546875 77.300781 0.417969 77.816406 0.3125 78.339844 C 0.210938 78.863281 0.128906 79.390625 0.078125 79.921875 C 0.0273438 80.453125 0 80.988281 0 81.523438 L 0 358.695312 C 0 359.230469 0.0273438 359.761719 0.078125 360.292969 C 0.128906 360.824219 0.210938 361.351562 0.3125 361.875 C 0.417969 362.398438 0.546875 362.917969 0.703125 363.429688 C 0.855469 363.941406 1.035156 364.441406 1.242188 364.933594 C 1.445312 365.429688 1.671875 365.910156 1.925781 366.382812 C 2.175781 366.851562 2.449219 367.308594 2.746094 367.753906 C 3.042969 368.199219 3.363281 368.625 3.699219 369.039062 C 4.039062 369.453125 4.398438 369.847656 4.777344 370.222656 C 5.152344 370.601562 5.546875 370.960938 5.960938 371.300781 C 6.375 371.636719 6.800781 371.957031 7.246094 372.253906 C 7.691406 372.550781 8.148438 372.824219 8.617188 373.074219 C 9.089844 373.328125 9.570312 373.554688 10.066406 373.757812 C 10.558594 373.964844 11.058594 374.144531 11.570312 374.296875 C 12.082031 374.453125 12.601562 374.582031 13.125 374.6875 C 13.648438 374.789062 14.175781 374.867188 14.707031 374.921875 C 15.238281 374.972656 15.769531 375 16.304688 375 L 358.695312 375 C 359.230469 375 359.761719 374.972656 360.292969 374.921875 C 360.824219 374.867188 361.351562 374.789062 361.875 374.6875 C 362.398438 374.582031 362.917969 374.453125 363.429688 374.296875 C 363.941406 374.144531 364.441406 373.964844 364.933594 373.757812 C 365.429688 373.554688 365.910156 373.328125 366.382812 373.074219 C 366.851562 372.824219 367.308594 372.550781 367.753906 372.253906 C 368.199219 371.957031 368.625 371.636719 369.039062 371.300781 C 369.453125 370.960938 369.847656 370.601562 370.222656 370.222656 C 370.601562 369.847656 370.960938 369.453125 371.300781 369.039062 C 371.636719 368.625 371.957031 368.199219 372.253906 367.753906 C 372.550781 367.308594 372.824219 366.851562 373.074219 366.382812 C 373.328125 365.910156 373.554688 365.429688 373.757812 364.933594 C 373.964844 364.441406 374.144531 363.941406 374.296875 363.429688 C 374.453125 362.917969 374.582031 362.398438 374.6875 361.875 C 374.789062 361.351562 374.867188 360.824219 374.921875 360.292969 C 374.972656 359.761719 375 359.230469 375 358.695312 L 375 81.523438 C 375 80.988281 374.972656 80.453125 374.921875 79.921875 C 374.867188 79.390625 374.789062 78.863281 374.6875 78.339844 C 374.582031 77.816406 374.453125 77.300781 374.296875 76.789062 C 374.144531 76.277344 373.964844 75.777344 373.757812 75.28125 C 373.554688 74.789062 373.328125 74.308594 373.074219 73.835938 C 372.824219 73.363281 372.550781 72.90625 372.253906 72.464844 C 371.957031 72.019531 371.636719 71.589844 371.300781 71.179688 C 370.960938 70.765625 370.601562 70.371094 370.222656 69.992188 C 369.847656 69.613281 369.453125 69.257812 369.039062 68.917969 C 368.625 68.578125 368.199219 68.261719 367.753906 67.964844 C 367.308594 67.667969 366.851562 67.394531 366.382812 67.144531 C 365.910156 66.890625 365.429688 66.664062 364.933594 66.457031 C 364.441406 66.253906 363.941406 66.074219 363.429688 65.917969 C 362.917969 65.765625 362.398438 65.636719 361.875 65.53125 C 361.351562 65.425781 360.824219 65.347656 360.292969 65.296875 C 359.761719 65.242188 359.230469 65.21875 358.695312 65.21875 Z M 138.585938 63.015625 C 138.589844 62.019531 138.640625 61.027344 138.742188 60.039062 C 138.839844 59.046875 138.988281 58.066406 139.183594 57.089844 C 139.378906 56.113281 139.625 55.148438 139.914062 54.199219 C 140.203125 53.246094 140.542969 52.3125 140.921875 51.390625 C 141.304688 50.472656 141.730469 49.574219 142.203125 48.699219 C 142.671875 47.820312 143.183594 46.96875 143.738281 46.140625 C 144.289062 45.316406 144.882812 44.515625 145.515625 43.746094 C 146.144531 42.980469 146.8125 42.242188 147.515625 41.539062 C 148.21875 40.835938 148.957031 40.167969 149.726562 39.535156 C 150.496094 38.902344 151.292969 38.3125 152.121094 37.757812 C 152.949219 37.203125 153.800781 36.691406 154.675781 36.222656 C 155.554688 35.753906 156.453125 35.328125 157.371094 34.945312 C 158.289062 34.5625 159.226562 34.226562 160.175781 33.9375 C 161.128906 33.644531 162.09375 33.402344 163.066406 33.207031 C 164.042969 33.011719 165.027344 32.863281 166.015625 32.761719 C 167.007812 32.664062 168 32.613281 168.996094 32.609375 L 205.925781 32.609375 C 206.921875 32.609375 207.914062 32.65625 208.90625 32.753906 C 209.898438 32.851562 210.882812 33 211.863281 33.191406 C 212.839844 33.386719 213.804688 33.628906 214.761719 33.917969 C 215.714844 34.207031 216.652344 34.539062 217.574219 34.921875 C 218.492188 35.300781 219.394531 35.726562 220.273438 36.195312 C 221.152344 36.664062 222.007812 37.175781 222.835938 37.730469 C 223.667969 38.28125 224.46875 38.875 225.238281 39.507812 C 226.007812 40.136719 226.75 40.804688 227.453125 41.511719 C 228.160156 42.214844 228.828125 42.949219 229.464844 43.71875 C 230.097656 44.488281 230.691406 45.289062 231.246094 46.117188 C 231.800781 46.945312 232.316406 47.796875 232.785156 48.675781 C 233.257812 49.554688 233.683594 50.453125 234.070312 51.375 C 234.453125 52.292969 234.789062 53.230469 235.082031 54.183594 C 235.371094 55.136719 235.617188 56.101562 235.8125 57.078125 C 236.011719 58.058594 236.160156 59.042969 236.257812 60.035156 C 236.359375 61.023438 236.410156 62.019531 236.414062 63.015625 L 236.414062 65.21875 L 138.585938 65.21875 Z M 122.28125 97.824219 L 342.390625 97.824219 L 342.390625 187.5 L 228.261719 187.5 L 228.261719 171.195312 C 228.261719 170.660156 228.234375 170.128906 228.183594 169.597656 C 228.128906 169.066406 228.050781 168.539062 227.949219 168.015625 C 227.84375 167.492188 227.714844 166.972656 227.558594 166.460938 C 227.402344 165.953125 227.222656 165.449219 227.019531 164.957031 C 226.816406 164.464844 226.585938 163.980469 226.335938 163.511719 C 226.082031 163.039062 225.808594 162.582031 225.511719 162.136719 C 225.214844 161.695312 224.898438 161.265625 224.558594 160.851562 C 224.222656 160.441406 223.863281 160.042969 223.484375 159.667969 C 223.109375 159.289062 222.710938 158.929688 222.300781 158.59375 C 221.886719 158.253906 221.457031 157.9375 221.015625 157.640625 C 220.570312 157.34375 220.113281 157.066406 219.640625 156.816406 C 219.171875 156.566406 218.6875 156.335938 218.195312 156.132812 C 217.703125 155.929688 217.199219 155.75 216.6875 155.59375 C 216.179688 155.4375 215.660156 155.308594 215.136719 155.203125 C 214.613281 155.101562 214.085938 155.023438 213.554688 154.96875 C 213.023438 154.917969 212.492188 154.890625 211.957031 154.890625 L 163.042969 154.890625 C 162.507812 154.890625 161.976562 154.917969 161.445312 154.96875 C 160.914062 155.023438 160.386719 155.101562 159.863281 155.203125 C 159.339844 155.308594 158.820312 155.4375 158.3125 155.59375 C 157.800781 155.75 157.296875 155.929688 156.804688 156.132812 C 156.3125 156.335938 155.828125 156.566406 155.359375 156.816406 C 154.886719 157.066406 154.429688 157.34375 153.984375 157.640625 C 153.542969 157.9375 153.113281 158.253906 152.699219 158.59375 C 152.289062 158.929688 151.890625 159.289062 151.515625 159.667969 C 151.136719 160.042969 150.777344 160.441406 150.441406 160.851562 C 150.101562 161.265625 149.785156 161.695312 149.488281 162.136719 C 149.191406 162.582031 148.917969 163.039062 148.664062 163.511719 C 148.414062 163.980469 148.183594 164.464844 147.980469 164.957031 C 147.777344 165.449219 147.597656 165.953125 147.441406 166.460938 C 147.285156 166.972656 147.15625 167.492188 147.050781 168.015625 C 146.949219 168.539062 146.871094 169.066406 146.816406 169.597656 C 146.765625 170.128906 146.738281 170.660156 146.738281 171.195312 L 146.738281 187.5 L 32.609375 187.5 L 32.609375 97.824219 Z M 195.652344 187.5 L 195.652344 220.109375 L 179.347656 220.109375 L 179.347656 187.5 Z M 32.609375 342.390625 L 32.609375 220.109375 L 146.738281 220.109375 L 146.738281 236.414062 C 146.738281 236.945312 146.765625 237.480469 146.816406 238.011719 C 146.871094 238.542969 146.949219 239.070312 147.050781 239.59375 C 147.15625 240.117188 147.285156 240.636719 147.441406 241.144531 C 147.597656 241.65625 147.777344 242.160156 147.980469 242.652344 C 148.183594 243.144531 148.414062 243.628906 148.664062 244.097656 C 148.917969 244.570312 149.191406 245.027344 149.488281 245.472656 C 149.785156 245.914062 150.101562 246.34375 150.441406 246.757812 C 150.777344 247.167969 151.136719 247.5625 151.515625 247.941406 C 151.890625 248.320312 152.289062 248.675781 152.699219 249.015625 C 153.113281 249.355469 153.542969 249.671875 153.984375 249.96875 C 154.429688 250.265625 154.886719 250.539062 155.359375 250.792969 C 155.828125 251.042969 156.3125 251.273438 156.804688 251.476562 C 157.296875 251.679688 157.800781 251.859375 158.3125 252.015625 C 158.820312 252.171875 159.339844 252.300781 159.863281 252.402344 C 160.386719 252.507812 160.914062 252.585938 161.445312 252.640625 C 161.976562 252.691406 162.507812 252.71875 163.042969 252.71875 L 211.957031 252.71875 C 212.492188 252.71875 213.023438 252.691406 213.554688 252.640625 C 214.085938 252.585938 214.613281 252.507812 215.136719 252.402344 C 215.660156 252.300781 216.179688 252.171875 216.6875 252.015625 C 217.199219 251.859375 217.703125 251.679688 218.195312 251.476562 C 218.6875 251.273438 219.171875 251.042969 219.640625 250.792969 C 220.113281 250.539062 220.570312 250.265625 221.015625 249.96875 C 221.457031 249.671875 221.886719 249.355469 222.300781 249.015625 C 222.710938 248.675781 223.109375 248.320312 223.484375 247.941406 C 223.863281 247.5625 224.222656 247.167969 224.558594 246.757812 C 224.898438 246.34375 225.214844 245.914062 225.511719 245.472656 C 225.808594 245.027344 226.082031 244.570312 226.335938 244.097656 C 226.585938 243.628906 226.816406 243.144531 227.019531 242.652344 C 227.222656 242.160156 227.402344 241.65625 227.558594 241.144531 C 227.714844 240.636719 227.84375 240.117188 227.949219 239.59375 C 228.050781 239.070312 228.128906 238.542969 228.183594 238.011719 C 228.234375 237.480469 228.261719 236.945312 228.261719 236.414062 L 228.261719 220.109375 L 342.390625 220.109375 L 342.390625 342.390625 Z M 32.609375 342.390625 " fill-opacity="1" fill-rule="nonzero"/></svg>