<svg xmlns="http://www.w3.org/2000/svg" xmlns:xlink="http://www.w3.org/1999/xlink" width="500" zoomAndPan="magnify" viewBox="0 0 375 374.999991" height="500" preserveAspectRatio="xMidYMid meet" version="1.0"><defs><clipPath id="id1"><path d="M 3.046875 4 L 372.046875 4 L 372.046875 374 L 3.046875 374 Z M 3.046875 4 " clip-rule="nonzero"/></clipPath></defs><path fill="#eff2f8" d="M 92.320312 129.785156 L 104.222656 129.785156 L 104.222656 153.585938 L 92.320312 153.585938 Z M 92.320312 129.785156 " fill-opacity="1" fill-rule="nonzero"/><path fill="#eff2f8" d="M 175.644531 129.785156 L 187.546875 129.785156 L 187.546875 153.585938 L 175.644531 153.585938 Z M 175.644531 129.785156 " fill-opacity="1" fill-rule="nonzero"/><path fill="#eff2f8" d="M 169.691406 177.386719 L 157.789062 177.386719 C 157.789062 177.96875 157.761719 178.550781 157.703125 179.132812 C 157.644531 179.714844 157.558594 180.292969 157.445312 180.867188 C 157.332031 181.441406 157.191406 182.007812 157.019531 182.566406 C 156.851562 183.125 156.652344 183.675781 156.429688 184.214844 C 156.207031 184.757812 155.957031 185.285156 155.679688 185.800781 C 155.40625 186.316406 155.105469 186.816406 154.78125 187.300781 C 154.453125 187.789062 154.105469 188.257812 153.734375 188.707031 C 153.363281 189.160156 152.972656 189.59375 152.558594 190.007812 C 152.144531 190.421875 151.714844 190.8125 151.261719 191.183594 C 150.808594 191.554688 150.339844 191.902344 149.855469 192.226562 C 149.367188 192.550781 148.867188 192.851562 148.351562 193.128906 C 147.835938 193.402344 147.308594 193.652344 146.765625 193.875 C 146.226562 194.101562 145.675781 194.296875 145.117188 194.464844 C 144.558594 194.636719 143.992188 194.777344 143.417969 194.890625 C 142.84375 195.007812 142.265625 195.09375 141.683594 195.148438 C 141.101562 195.207031 140.519531 195.234375 139.933594 195.234375 C 139.347656 195.234375 138.765625 195.207031 138.183594 195.148438 C 137.601562 195.09375 137.023438 195.007812 136.449219 194.890625 C 135.878906 194.777344 135.3125 194.636719 134.75 194.464844 C 134.191406 194.296875 133.640625 194.101562 133.101562 193.875 C 132.5625 193.652344 132.03125 193.402344 131.515625 193.128906 C 131 192.851562 130.5 192.550781 130.015625 192.226562 C 129.527344 191.902344 129.058594 191.554688 128.605469 191.183594 C 128.15625 190.8125 127.722656 190.421875 127.308594 190.007812 C 126.894531 189.59375 126.503906 189.160156 126.132812 188.707031 C 125.761719 188.257812 125.414062 187.789062 125.089844 187.300781 C 124.761719 186.816406 124.464844 186.316406 124.1875 185.800781 C 123.910156 185.285156 123.660156 184.757812 123.4375 184.214844 C 123.214844 183.675781 123.019531 183.125 122.847656 182.566406 C 122.679688 182.007812 122.535156 181.441406 122.421875 180.867188 C 122.308594 180.292969 122.222656 179.714844 122.164062 179.132812 C 122.109375 178.550781 122.078125 177.96875 122.078125 177.386719 L 110.175781 177.386719 C 110.175781 178.359375 110.222656 179.332031 110.320312 180.300781 C 110.414062 181.269531 110.558594 182.234375 110.746094 183.1875 C 110.9375 184.144531 111.175781 185.089844 111.457031 186.019531 C 111.738281 186.953125 112.066406 187.871094 112.441406 188.769531 C 112.8125 189.671875 113.230469 190.550781 113.691406 191.410156 C 114.148438 192.269531 114.648438 193.101562 115.191406 193.914062 C 115.734375 194.722656 116.3125 195.503906 116.929688 196.257812 C 117.550781 197.011719 118.203125 197.734375 118.890625 198.421875 C 119.582031 199.109375 120.300781 199.765625 121.054688 200.382812 C 121.808594 201 122.589844 201.582031 123.402344 202.121094 C 124.210938 202.664062 125.046875 203.164062 125.90625 203.621094 C 126.765625 204.082031 127.644531 204.496094 128.546875 204.871094 C 129.445312 205.242188 130.363281 205.570312 131.296875 205.855469 C 132.226562 206.136719 133.171875 206.375 134.128906 206.5625 C 135.085938 206.753906 136.046875 206.898438 137.015625 206.992188 C 137.988281 207.085938 138.960938 207.136719 139.933594 207.136719 C 140.910156 207.136719 141.882812 207.085938 142.851562 206.992188 C 143.820312 206.898438 144.785156 206.753906 145.738281 206.5625 C 146.695312 206.375 147.640625 206.136719 148.574219 205.855469 C 149.503906 205.570312 150.421875 205.242188 151.320312 204.871094 C 152.222656 204.496094 153.101562 204.082031 153.960938 203.621094 C 154.820312 203.164062 155.65625 202.664062 156.464844 202.121094 C 157.277344 201.582031 158.058594 201 158.8125 200.382812 C 159.566406 199.765625 160.285156 199.109375 160.976562 198.421875 C 161.664062 197.734375 162.320312 197.011719 162.9375 196.257812 C 163.554688 195.503906 164.136719 194.722656 164.675781 193.914062 C 165.21875 193.101562 165.71875 192.269531 166.179688 191.410156 C 166.636719 190.550781 167.054688 189.671875 167.425781 188.769531 C 167.800781 187.871094 168.128906 186.953125 168.410156 186.019531 C 168.695312 185.089844 168.929688 184.144531 169.121094 183.1875 C 169.308594 182.234375 169.453125 181.269531 169.546875 180.300781 C 169.644531 179.332031 169.691406 178.359375 169.691406 177.386719 Z M 169.691406 177.386719 " fill-opacity="1" fill-rule="nonzero"/><g clip-path="url(#id1)"><path fill="#eff2f8" d="M 366.09375 242.835938 L 350.679688 242.835938 L 370.320312 223.261719 C 370.601562 222.984375 370.847656 222.683594 371.066406 222.355469 C 371.289062 222.03125 371.472656 221.6875 371.625 221.324219 C 371.773438 220.960938 371.890625 220.585938 371.964844 220.203125 C 372.042969 219.816406 372.082031 219.429688 372.082031 219.035156 C 372.082031 218.644531 372.042969 218.253906 371.964844 217.867188 C 371.890625 217.484375 371.773438 217.109375 371.625 216.746094 C 371.472656 216.382812 371.289062 216.039062 371.066406 215.714844 C 370.847656 215.390625 370.601562 215.085938 370.320312 214.8125 L 352.464844 196.960938 C 352.1875 196.683594 351.886719 196.433594 351.5625 196.214844 C 351.234375 195.996094 350.890625 195.808594 350.527344 195.660156 C 350.167969 195.507812 349.792969 195.394531 349.40625 195.316406 C 349.023438 195.238281 348.632812 195.199219 348.242188 195.199219 C 347.847656 195.199219 347.457031 195.238281 347.074219 195.316406 C 346.6875 195.394531 346.3125 195.507812 345.953125 195.660156 C 345.589844 195.808594 345.246094 195.996094 344.917969 196.214844 C 344.59375 196.433594 344.292969 196.683594 344.015625 196.960938 L 298.1875 242.835938 L 223.257812 242.835938 C 222.589844 242.8125 221.933594 242.898438 221.296875 243.09375 C 220.65625 243.289062 220.066406 243.582031 219.527344 243.976562 C 218.988281 244.371094 218.527344 244.839844 218.144531 245.390625 C 217.765625 245.941406 217.484375 246.535156 217.304688 247.179688 L 181.59375 238.195312 L 181.59375 225.640625 C 186.148438 222.996094 190.414062 219.953125 194.394531 216.503906 C 198.375 213.058594 201.996094 209.269531 205.261719 205.140625 C 208.523438 201.007812 211.375 196.609375 213.8125 191.945312 C 216.246094 187.277344 218.222656 182.425781 219.746094 177.386719 L 220.28125 177.386719 C 221.121094 177.382812 221.960938 177.339844 222.800781 177.253906 C 223.636719 177.171875 224.46875 177.050781 225.296875 176.890625 C 226.121094 176.726562 226.9375 176.527344 227.746094 176.289062 C 228.554688 176.050781 229.347656 175.777344 230.128906 175.460938 C 230.910156 175.148438 231.675781 174.800781 232.421875 174.414062 C 233.171875 174.027344 233.898438 173.605469 234.609375 173.152344 C 235.316406 172.699219 236.003906 172.210938 236.664062 171.691406 C 237.328125 171.171875 237.964844 170.621094 238.574219 170.042969 C 239.183594 169.464844 239.765625 168.855469 240.320312 168.222656 C 240.871094 167.585938 241.394531 166.929688 241.886719 166.246094 C 242.375 165.5625 242.832031 164.855469 243.257812 164.128906 C 243.683594 163.402344 244.070312 162.65625 244.425781 161.894531 C 244.777344 161.128906 245.09375 160.351562 245.375 159.554688 C 245.65625 158.761719 245.898438 157.957031 246.101562 157.140625 C 246.304688 156.324219 246.46875 155.5 246.597656 154.667969 C 246.722656 153.835938 246.808594 153 246.855469 152.160156 C 246.902344 151.320312 246.910156 150.476562 246.878906 149.636719 C 246.84375 148.796875 246.773438 147.957031 246.660156 147.125 C 246.550781 146.289062 246.398438 145.464844 246.207031 144.644531 C 246.019531 143.824219 245.789062 143.015625 245.523438 142.214844 C 245.257812 141.417969 244.953125 140.632812 244.613281 139.863281 C 244.273438 139.09375 243.898438 138.34375 243.484375 137.609375 C 243.074219 136.875 242.628906 136.160156 242.148438 135.46875 C 241.671875 134.777344 241.160156 134.109375 240.617188 133.464844 C 240.078125 132.820312 239.503906 132.203125 238.90625 131.613281 C 238.304688 131.023438 237.675781 130.464844 237.023438 129.933594 C 236.371094 129.402344 235.691406 128.902344 234.992188 128.4375 C 234.292969 127.96875 233.570312 127.539062 232.828125 127.140625 C 232.089844 126.742188 231.328125 126.378906 230.554688 126.050781 C 229.777344 125.722656 228.988281 125.433594 228.1875 125.183594 C 227.382812 124.929688 226.570312 124.714844 225.746094 124.539062 C 224.921875 124.363281 224.09375 124.226562 223.257812 124.132812 L 223.257812 90.394531 C 226.050781 87.894531 228.707031 85.257812 231.222656 82.480469 C 233.742188 79.703125 236.105469 76.800781 238.316406 73.777344 C 240.53125 70.75 242.578125 67.617188 244.460938 64.378906 C 246.34375 61.136719 248.054688 57.808594 249.589844 54.386719 C 251.121094 50.96875 252.472656 47.476562 253.640625 43.917969 C 254.808594 40.355469 255.785156 36.742188 256.574219 33.078125 C 257.359375 29.414062 257.953125 25.71875 258.355469 21.992188 C 258.753906 18.265625 258.957031 14.53125 258.964844 10.78125 C 258.964844 9.769531 258.722656 8.820312 258.234375 7.933594 C 257.75 7.046875 257.078125 6.332031 256.226562 5.785156 C 255.382812 5.242188 254.457031 4.933594 253.453125 4.859375 C 252.453125 4.785156 251.492188 4.953125 250.574219 5.367188 L 213.019531 22.683594 C 211.191406 23.511719 209.316406 24.210938 207.394531 24.777344 C 205.46875 25.34375 203.515625 25.777344 201.53125 26.070312 C 199.546875 26.367188 197.550781 26.523438 195.546875 26.539062 C 193.539062 26.554688 191.542969 26.433594 189.554688 26.171875 C 187.5625 25.910156 185.601562 25.511719 183.667969 24.976562 C 181.734375 24.441406 179.847656 23.777344 178.007812 22.976562 C 176.167969 22.179688 174.390625 21.257812 172.679688 20.210938 C 170.96875 19.164062 169.335938 18.003906 167.789062 16.730469 C 166.679688 15.796875 165.535156 14.914062 164.351562 14.078125 C 163.167969 13.246094 161.949219 12.464844 160.695312 11.738281 C 159.445312 11.007812 158.164062 10.339844 156.851562 9.722656 C 155.539062 9.109375 154.203125 8.550781 152.84375 8.054688 C 151.484375 7.558594 150.105469 7.121094 148.707031 6.742188 C 147.308594 6.367188 145.894531 6.050781 144.46875 5.800781 C 143.042969 5.546875 141.605469 5.355469 140.164062 5.230469 C 138.722656 5.101562 137.277344 5.039062 135.828125 5.039062 C 134.378906 5.039062 132.933594 5.101562 131.492188 5.230469 C 130.046875 5.355469 128.613281 5.546875 127.1875 5.800781 C 125.761719 6.050781 124.347656 6.367188 122.949219 6.742188 C 121.550781 7.121094 120.171875 7.558594 118.8125 8.054688 C 117.449219 8.550781 116.113281 9.109375 114.804688 9.722656 C 113.492188 10.339844 112.210938 11.007812 110.957031 11.738281 C 109.703125 12.464844 108.488281 13.246094 107.300781 14.078125 C 106.117188 14.914062 104.972656 15.796875 103.867188 16.730469 L 92.617188 16.730469 C 89.382812 16.726562 86.167969 16.960938 82.964844 17.429688 C 79.765625 17.902344 76.617188 18.605469 73.523438 19.542969 C 70.425781 20.480469 67.417969 21.640625 64.492188 23.023438 C 61.570312 24.410156 58.761719 26 56.074219 27.800781 C 54.761719 28.671875 53.488281 29.597656 52.257812 30.585938 C 51.03125 31.570312 49.847656 32.609375 48.710938 33.703125 C 47.574219 34.796875 46.492188 35.9375 45.460938 37.128906 C 44.425781 38.320312 43.449219 39.558594 42.53125 40.835938 C 41.609375 42.117188 40.75 43.4375 39.949219 44.792969 C 39.148438 46.152344 38.410156 47.542969 37.734375 48.96875 C 37.0625 50.390625 36.453125 51.84375 35.910156 53.324219 C 35.367188 54.804688 34.890625 56.304688 34.484375 57.828125 C 34.078125 59.351562 33.742188 60.886719 33.472656 62.441406 C 33.207031 63.996094 33.007812 65.558594 32.882812 67.128906 C 32.757812 68.699219 32.703125 70.273438 32.71875 71.847656 C 32.738281 73.425781 32.824219 74.996094 32.984375 76.566406 C 33.144531 78.132812 33.371094 79.691406 33.671875 81.238281 C 33.972656 82.785156 34.34375 84.316406 34.78125 85.828125 C 35.222656 87.34375 35.726562 88.835938 36.300781 90.300781 C 36.875 91.769531 37.515625 93.207031 38.222656 94.617188 L 53.21875 124.667969 C 52.425781 124.851562 51.644531 125.074219 50.875 125.332031 C 50.105469 125.589844 49.347656 125.882812 48.601562 126.210938 C 47.859375 126.539062 47.128906 126.898438 46.417969 127.292969 C 45.707031 127.683594 45.015625 128.109375 44.34375 128.566406 C 43.667969 129.023438 43.019531 129.507812 42.390625 130.023438 C 41.761719 130.539062 41.160156 131.085938 40.578125 131.65625 C 40 132.226562 39.449219 132.824219 38.925781 133.445312 C 38.402344 134.066406 37.90625 134.707031 37.441406 135.375 C 36.976562 136.042969 36.542969 136.726562 36.136719 137.433594 C 35.734375 138.140625 35.367188 138.863281 35.027344 139.601562 C 34.691406 140.34375 34.390625 141.097656 34.121094 141.863281 C 33.855469 142.632812 33.621094 143.410156 33.425781 144.199219 C 33.226562 144.988281 33.066406 145.78125 32.941406 146.585938 C 32.820312 147.390625 32.730469 148.195312 32.679688 149.007812 C 32.628906 149.820312 32.617188 150.632812 32.640625 151.445312 C 32.664062 152.257812 32.722656 153.066406 32.820312 153.875 C 32.917969 154.679688 33.054688 155.480469 33.222656 156.277344 C 33.394531 157.070312 33.601562 157.855469 33.84375 158.632812 C 34.085938 159.40625 34.363281 160.171875 34.675781 160.921875 C 34.988281 161.671875 35.332031 162.40625 35.710938 163.125 C 36.089844 163.84375 36.5 164.546875 36.945312 165.226562 C 37.386719 165.910156 37.859375 166.570312 38.363281 167.207031 C 38.867188 167.84375 39.398438 168.460938 39.957031 169.050781 C 40.515625 169.640625 41.101562 170.203125 41.710938 170.738281 C 42.324219 171.277344 42.957031 171.785156 43.613281 172.261719 C 44.273438 172.742188 44.949219 173.1875 45.648438 173.605469 C 46.34375 174.023438 47.0625 174.40625 47.792969 174.757812 C 48.527344 175.109375 49.273438 175.425781 50.035156 175.710938 C 50.800781 175.992188 51.574219 176.242188 52.355469 176.453125 C 53.140625 176.667969 53.933594 176.84375 54.734375 176.984375 C 55.535156 177.125 56.34375 177.226562 57.152344 177.296875 C 57.960938 177.363281 58.773438 177.390625 59.585938 177.386719 L 60.121094 177.386719 C 61.644531 182.425781 63.621094 187.277344 66.058594 191.945312 C 68.492188 196.613281 71.34375 201.007812 74.609375 205.140625 C 77.871094 209.269531 81.496094 213.058594 85.472656 216.503906 C 89.453125 219.953125 93.71875 222.996094 98.273438 225.640625 L 98.273438 238.195312 L 39.113281 253.011719 C 37.835938 253.328125 36.574219 253.703125 35.328125 254.125 C 34.082031 254.550781 32.859375 255.023438 31.652344 255.546875 C 30.445312 256.074219 29.261719 256.648438 28.101562 257.273438 C 26.945312 257.894531 25.8125 258.566406 24.710938 259.28125 C 23.605469 260 22.535156 260.761719 21.496094 261.566406 C 20.453125 262.371094 19.449219 263.21875 18.480469 264.109375 C 17.507812 264.996094 16.578125 265.925781 15.683594 266.890625 C 14.792969 267.859375 13.941406 268.859375 13.132812 269.894531 C 12.320312 270.933594 11.554688 272 10.835938 273.101562 C 10.113281 274.203125 9.4375 275.328125 8.8125 276.484375 C 8.183594 277.640625 7.605469 278.820312 7.074219 280.027344 C 6.546875 281.230469 6.066406 282.453125 5.636719 283.695312 C 5.210938 284.941406 4.835938 286.199219 4.511719 287.476562 C 4.1875 288.75 3.917969 290.035156 3.699219 291.332031 C 3.480469 292.628906 3.320312 293.933594 3.210938 295.246094 C 3.101562 296.554688 3.046875 297.867188 3.046875 299.183594 L 3.046875 367.789062 C 3.046875 368.179688 3.085938 368.566406 3.160156 368.949219 C 3.238281 369.332031 3.351562 369.703125 3.5 370.066406 C 3.648438 370.425781 3.832031 370.769531 4.050781 371.09375 C 4.265625 371.417969 4.515625 371.71875 4.789062 371.996094 C 5.066406 372.273438 5.367188 372.519531 5.691406 372.734375 C 6.015625 372.953125 6.359375 373.136719 6.722656 373.285156 C 7.082031 373.433594 7.453125 373.546875 7.835938 373.625 C 8.21875 373.699219 8.609375 373.738281 9 373.738281 L 205.402344 373.738281 L 205.402344 361.839844 L 62.5625 361.839844 L 62.5625 314.238281 L 50.660156 314.238281 L 50.660156 361.839844 L 14.949219 361.839844 L 14.949219 299.183594 C 14.949219 298.195312 14.988281 297.210938 15.066406 296.226562 C 15.148438 295.242188 15.269531 294.261719 15.429688 293.289062 C 15.589844 292.316406 15.792969 291.347656 16.035156 290.390625 C 16.277344 289.433594 16.554688 288.488281 16.875 287.554688 C 17.195312 286.621094 17.554688 285.703125 17.949219 284.796875 C 18.347656 283.894531 18.78125 283.007812 19.25 282.136719 C 19.71875 281.269531 20.226562 280.421875 20.765625 279.59375 C 21.304688 278.769531 21.878906 277.964844 22.484375 277.1875 C 23.09375 276.40625 23.730469 275.65625 24.398438 274.929688 C 25.070312 274.203125 25.765625 273.507812 26.492188 272.839844 C 27.222656 272.171875 27.972656 271.53125 28.753906 270.925781 C 29.535156 270.320312 30.335938 269.75 31.164062 269.210938 C 31.992188 268.671875 32.839844 268.167969 33.710938 267.699219 C 34.578125 267.230469 35.464844 266.796875 36.371094 266.402344 C 37.277344 266.007812 38.195312 265.652344 39.132812 265.332031 C 40.066406 265.015625 41.011719 264.734375 41.96875 264.496094 L 84.167969 253.960938 L 98.628906 292.519531 C 98.84375 293.089844 99.136719 293.613281 99.507812 294.09375 C 99.882812 294.574219 100.320312 294.984375 100.820312 295.332031 C 101.320312 295.675781 101.859375 295.9375 102.441406 296.121094 C 103.023438 296.300781 103.617188 296.390625 104.222656 296.386719 C 104.859375 296.46875 105.492188 296.46875 106.128906 296.386719 L 139.933594 284.785156 L 173.738281 296.386719 C 174.375 296.46875 175.007812 296.46875 175.644531 296.386719 C 176.25 296.390625 176.847656 296.300781 177.425781 296.121094 C 178.007812 295.9375 178.546875 295.675781 179.046875 295.332031 C 179.546875 294.984375 179.984375 294.574219 180.359375 294.09375 C 180.730469 293.613281 181.023438 293.089844 181.238281 292.519531 L 195.699219 253.960938 L 217.304688 259.378906 L 217.304688 367.789062 C 217.304688 368.179688 217.34375 368.566406 217.417969 368.949219 C 217.496094 369.332031 217.609375 369.703125 217.757812 370.066406 C 217.90625 370.425781 218.089844 370.769531 218.308594 371.09375 C 218.523438 371.417969 218.773438 371.71875 219.046875 371.996094 C 219.324219 372.273438 219.625 372.519531 219.949219 372.734375 C 220.273438 372.953125 220.617188 373.136719 220.980469 373.285156 C 221.339844 373.433594 221.710938 373.546875 222.09375 373.625 C 222.480469 373.699219 222.867188 373.738281 223.257812 373.738281 L 366.09375 373.738281 C 366.484375 373.738281 366.871094 373.699219 367.257812 373.625 C 367.640625 373.546875 368.011719 373.433594 368.371094 373.285156 C 368.734375 373.136719 369.078125 372.953125 369.402344 372.734375 C 369.726562 372.519531 370.027344 372.273438 370.304688 371.996094 C 370.578125 371.71875 370.828125 371.417969 371.042969 371.09375 C 371.261719 370.769531 371.445312 370.425781 371.59375 370.066406 C 371.742188 369.703125 371.855469 369.332031 371.933594 368.949219 C 372.007812 368.566406 372.046875 368.179688 372.046875 367.789062 L 372.046875 248.785156 C 372.046875 248.394531 372.007812 248.007812 371.933594 247.625 C 371.855469 247.242188 371.742188 246.871094 371.59375 246.507812 C 371.445312 246.148438 371.261719 245.804688 371.042969 245.480469 C 370.828125 245.15625 370.578125 244.855469 370.304688 244.578125 C 370.027344 244.300781 369.726562 244.054688 369.402344 243.839844 C 369.078125 243.621094 368.734375 243.4375 368.371094 243.289062 C 368.011719 243.140625 367.640625 243.027344 367.257812 242.949219 C 366.871094 242.875 366.484375 242.835938 366.09375 242.835938 Z M 348.242188 209.574219 L 357.703125 219.035156 L 285.390625 291.328125 L 269.621094 297.636719 L 275.929688 281.867188 Z M 235.160156 150.609375 C 235.164062 151.503906 235.089844 152.390625 234.9375 153.273438 C 234.785156 154.152344 234.550781 155.011719 234.246094 155.851562 C 233.9375 156.691406 233.554688 157.496094 233.101562 158.269531 C 232.648438 159.039062 232.132812 159.765625 231.546875 160.441406 C 230.964844 161.121094 230.324219 161.742188 229.628906 162.304688 C 228.9375 162.867188 228.195312 163.363281 227.414062 163.792969 C 226.628906 164.226562 225.8125 164.582031 224.964844 164.867188 C 224.117188 165.148438 223.25 165.355469 222.363281 165.484375 C 222.941406 161.539062 223.238281 157.570312 223.257812 153.585938 L 223.257812 136.03125 C 224.089844 136.203125 224.902344 136.441406 225.695312 136.75 C 226.488281 137.0625 227.25 137.433594 227.976562 137.875 C 228.707031 138.316406 229.390625 138.816406 230.035156 139.371094 C 230.675781 139.929688 231.269531 140.539062 231.804688 141.199219 C 232.34375 141.859375 232.824219 142.558594 233.242188 143.300781 C 233.660156 144.039062 234.011719 144.8125 234.296875 145.613281 C 234.582031 146.414062 234.796875 147.234375 234.941406 148.074219 C 235.085938 148.914062 235.160156 149.757812 235.160156 150.609375 Z M 136.007812 16.730469 C 138.195312 16.734375 140.371094 16.921875 142.527344 17.300781 C 144.6875 17.679688 146.792969 18.242188 148.855469 18.988281 C 150.914062 19.734375 152.894531 20.652344 154.792969 21.742188 C 156.695312 22.832031 158.484375 24.078125 160.167969 25.480469 C 162.144531 27.109375 164.222656 28.597656 166.402344 29.941406 C 168.582031 31.285156 170.847656 32.46875 173.195312 33.496094 C 175.539062 34.523438 177.945312 35.382812 180.414062 36.074219 C 182.878906 36.765625 185.382812 37.28125 187.921875 37.625 C 190.457031 37.96875 193.007812 38.132812 195.570312 38.121094 C 198.132812 38.105469 200.679688 37.917969 203.214844 37.550781 C 205.75 37.179688 208.246094 36.640625 210.707031 35.921875 C 213.167969 35.207031 215.5625 34.324219 217.898438 33.273438 L 246.585938 20.242188 C 246.441406 21.695312 246.261719 23.144531 246.050781 24.585938 C 245.839844 26.03125 245.59375 27.46875 245.316406 28.902344 C 245.039062 30.332031 244.730469 31.757812 244.386719 33.179688 C 244.042969 34.597656 243.664062 36.003906 243.257812 37.40625 C 242.847656 38.808594 242.410156 40.199219 241.9375 41.578125 C 241.464844 42.960938 240.960938 44.328125 240.425781 45.6875 C 239.890625 47.046875 239.324219 48.390625 238.726562 49.722656 C 238.128906 51.054688 237.503906 52.371094 236.84375 53.671875 C 236.1875 54.976562 235.5 56.261719 234.785156 57.535156 C 234.066406 58.804688 233.320312 60.058594 232.546875 61.296875 C 231.773438 62.53125 230.96875 63.75 230.140625 64.953125 C 229.308594 66.152344 228.453125 67.332031 227.566406 68.492188 C 226.683594 69.652344 225.769531 70.792969 224.832031 71.910156 C 223.894531 73.03125 222.933594 74.125 221.945312 75.203125 C 220.957031 76.277344 219.945312 77.328125 218.910156 78.355469 C 217.875 79.382812 216.816406 80.386719 215.734375 81.367188 C 214.652344 82.34375 213.546875 83.296875 212.421875 84.226562 C 211.296875 85.15625 210.148438 86.058594 208.980469 86.933594 C 207.8125 87.808594 206.625 88.65625 205.421875 89.480469 C 204.214844 90.300781 202.988281 91.09375 201.746094 91.859375 C 200.503906 92.621094 199.242188 93.359375 197.964844 94.066406 C 196.691406 94.773438 195.398438 95.449219 194.089844 96.097656 C 192.78125 96.746094 191.460938 97.363281 190.121094 97.949219 C 188.785156 98.535156 187.4375 99.089844 186.074219 99.617188 C 184.714844 100.140625 183.339844 100.632812 181.957031 101.09375 C 180.570312 101.558594 179.175781 101.988281 177.773438 102.382812 C 176.367188 102.78125 174.953125 103.148438 173.535156 103.480469 C 172.113281 103.8125 170.683594 104.113281 169.25 104.378906 C 167.816406 104.644531 166.375 104.878906 164.929688 105.078125 C 163.484375 105.28125 162.035156 105.449219 160.582031 105.582031 C 159.128906 105.714844 157.671875 105.816406 156.214844 105.882812 C 154.753906 105.949219 153.296875 105.984375 151.835938 105.984375 L 149.8125 105.984375 C 148.125 105.984375 146.441406 105.902344 144.761719 105.734375 C 143.082031 105.570312 141.414062 105.324219 139.757812 104.992188 C 138.101562 104.664062 136.46875 104.253906 134.851562 103.765625 C 133.238281 103.273438 131.648438 102.707031 130.089844 102.0625 C 128.53125 101.414062 127.007812 100.695312 125.515625 99.898438 C 124.027344 99.105469 122.582031 98.238281 121.179688 97.300781 C 119.777344 96.363281 118.421875 95.359375 117.117188 94.289062 C 115.8125 93.214844 114.5625 92.085938 113.367188 90.890625 C 112.175781 89.699219 111.042969 88.449219 109.972656 87.144531 C 108.902344 85.839844 107.898438 84.484375 106.957031 83.082031 C 106.019531 81.679688 105.15625 80.234375 104.359375 78.746094 C 103.5625 77.257812 102.84375 75.734375 102.195312 74.175781 C 101.550781 72.617188 100.980469 71.027344 100.492188 69.414062 C 100.003906 67.796875 99.59375 66.164062 99.261719 64.507812 C 98.933594 62.851562 98.6875 61.1875 98.519531 59.507812 C 98.355469 57.828125 98.273438 56.144531 98.273438 54.457031 C 98.273438 53.21875 98.332031 51.988281 98.453125 50.757812 C 98.574219 49.527344 98.757812 48.308594 98.996094 47.097656 C 99.238281 45.882812 99.539062 44.6875 99.898438 43.503906 C 100.257812 42.324219 100.671875 41.160156 101.144531 40.019531 C 101.617188 38.878906 102.144531 37.761719 102.726562 36.671875 C 103.3125 35.582031 103.945312 34.523438 104.632812 33.496094 C 105.320312 32.46875 106.054688 31.480469 106.835938 30.523438 C 107.621094 29.570312 108.449219 28.65625 109.324219 27.78125 C 110.199219 26.90625 111.113281 26.078125 112.066406 25.296875 C 113.023438 24.511719 114.015625 23.777344 115.042969 23.089844 C 116.070312 22.402344 117.128906 21.769531 118.21875 21.1875 C 119.308594 20.605469 120.425781 20.078125 121.566406 19.605469 C 122.707031 19.128906 123.871094 18.714844 125.050781 18.355469 C 126.234375 17.996094 127.433594 17.699219 128.644531 17.457031 C 129.855469 17.214844 131.078125 17.035156 132.308594 16.914062 C 133.539062 16.792969 134.769531 16.730469 136.007812 16.730469 Z M 44.707031 71.234375 C 44.703125 69.582031 44.800781 67.9375 45 66.296875 C 45.199219 64.660156 45.496094 63.039062 45.894531 61.433594 C 46.292969 59.832031 46.785156 58.261719 47.378906 56.71875 C 47.96875 55.175781 48.652344 53.675781 49.425781 52.21875 C 50.203125 50.761719 51.066406 49.355469 52.015625 48.003906 C 52.960938 46.652344 53.992188 45.363281 55.097656 44.136719 C 56.203125 42.910156 57.382812 41.757812 58.632812 40.675781 C 59.878906 39.597656 61.191406 38.597656 62.5625 37.675781 C 66.972656 34.742188 71.710938 32.503906 76.777344 30.964844 C 81.84375 29.425781 87.023438 28.648438 92.320312 28.632812 L 93.390625 28.632812 C 91.0625 32.535156 89.300781 36.675781 88.105469 41.0625 C 86.914062 45.445312 86.335938 49.910156 86.371094 54.457031 C 86.378906 59.265625 86.929688 64.007812 88.023438 68.691406 C 89.121094 73.371094 90.730469 77.871094 92.855469 82.183594 L 86.371094 82.183594 C 85.519531 82.183594 84.675781 82.222656 83.828125 82.296875 C 82.984375 82.371094 82.144531 82.480469 81.308594 82.625 C 80.472656 82.773438 79.644531 82.953125 78.824219 83.167969 C 78.003906 83.386719 77.195312 83.636719 76.394531 83.921875 C 75.597656 84.210938 74.8125 84.527344 74.039062 84.882812 C 73.269531 85.234375 72.511719 85.621094 71.773438 86.035156 C 71.035156 86.453125 70.316406 86.902344 69.617188 87.382812 C 68.917969 87.859375 68.238281 88.367188 67.582031 88.90625 C 66.925781 89.441406 66.292969 90.007812 65.683594 90.597656 C 65.074219 91.1875 64.492188 91.804688 63.9375 92.445312 C 63.382812 93.085938 62.855469 93.75 62.355469 94.4375 C 61.855469 95.121094 61.386719 95.828125 60.949219 96.554688 C 60.511719 97.28125 60.105469 98.023438 59.730469 98.785156 C 59.355469 99.546875 59.011719 100.320312 58.703125 101.113281 C 58.394531 101.902344 58.121094 102.703125 57.878906 103.515625 C 57.640625 104.332031 57.4375 105.152344 57.265625 105.984375 L 48.992188 89.324219 C 46.148438 83.628906 44.71875 77.601562 44.707031 71.234375 Z M 44.707031 150.609375 C 44.707031 149.757812 44.78125 148.914062 44.925781 148.074219 C 45.070312 147.238281 45.285156 146.417969 45.570312 145.613281 C 45.855469 144.8125 46.207031 144.042969 46.625 143.300781 C 47.042969 142.558594 47.523438 141.859375 48.0625 141.199219 C 48.597656 140.539062 49.191406 139.933594 49.832031 139.375 C 50.476562 138.816406 51.160156 138.316406 51.890625 137.875 C 52.617188 137.4375 53.378906 137.0625 54.171875 136.75 C 54.964844 136.441406 55.777344 136.203125 56.613281 136.03125 L 56.613281 153.585938 C 56.628906 157.570312 56.925781 161.539062 57.503906 165.484375 C 56.617188 165.355469 55.753906 165.148438 54.902344 164.867188 C 54.054688 164.582031 53.238281 164.226562 52.457031 163.792969 C 51.671875 163.363281 50.933594 162.867188 50.238281 162.304688 C 49.542969 161.742188 48.902344 161.121094 48.320312 160.441406 C 47.738281 159.765625 47.21875 159.039062 46.765625 158.269531 C 46.3125 157.496094 45.933594 156.691406 45.625 155.851562 C 45.316406 155.011719 45.085938 154.152344 44.929688 153.273438 C 44.777344 152.390625 44.703125 151.503906 44.707031 150.609375 Z M 68.515625 153.585938 L 68.515625 111.933594 C 68.515625 111.347656 68.542969 110.765625 68.601562 110.183594 C 68.65625 109.601562 68.742188 109.023438 68.859375 108.453125 C 68.972656 107.878906 69.113281 107.3125 69.285156 106.753906 C 69.453125 106.191406 69.648438 105.644531 69.875 105.101562 C 70.097656 104.5625 70.347656 104.035156 70.621094 103.519531 C 70.898438 103.003906 71.199219 102.503906 71.523438 102.015625 C 71.847656 101.53125 72.195312 101.0625 72.566406 100.609375 C 72.9375 100.15625 73.332031 99.726562 73.746094 99.3125 C 74.15625 98.898438 74.589844 98.507812 75.042969 98.136719 C 75.496094 97.765625 75.964844 97.417969 76.449219 97.089844 C 76.9375 96.765625 77.4375 96.464844 77.953125 96.191406 C 78.46875 95.914062 78.996094 95.664062 79.535156 95.441406 C 80.078125 95.21875 80.625 95.023438 81.1875 94.851562 C 81.746094 94.683594 82.3125 94.539062 82.886719 94.425781 C 83.460938 94.3125 84.039062 94.226562 84.621094 94.167969 C 85.203125 94.113281 85.785156 94.082031 86.371094 94.082031 L 100.355469 94.082031 C 101.832031 95.933594 103.410156 97.695312 105.085938 99.367188 C 106.761719 101.039062 108.523438 102.613281 110.375 104.089844 C 112.230469 105.566406 114.15625 106.933594 116.164062 108.191406 C 118.167969 109.449219 120.238281 110.59375 122.371094 111.621094 C 124.503906 112.644531 126.6875 113.550781 128.925781 114.332031 C 131.160156 115.113281 133.429688 115.769531 135.738281 116.296875 C 138.046875 116.824219 140.378906 117.21875 142.730469 117.484375 C 145.085938 117.75 147.445312 117.882812 149.8125 117.882812 L 151.835938 117.882812 C 157.101562 117.910156 162.339844 117.546875 167.546875 116.792969 C 172.757812 116.042969 177.886719 114.910156 182.925781 113.398438 C 187.96875 111.886719 192.871094 110.011719 197.636719 107.769531 C 202.398438 105.53125 206.972656 102.953125 211.351562 100.035156 L 211.351562 153.585938 C 211.351562 154.753906 211.324219 155.921875 211.265625 157.089844 C 211.210938 158.253906 211.125 159.421875 211.007812 160.582031 C 210.894531 161.746094 210.75 162.90625 210.582031 164.0625 C 210.410156 165.21875 210.210938 166.367188 209.980469 167.515625 C 209.753906 168.660156 209.496094 169.800781 209.214844 170.933594 C 208.929688 172.066406 208.617188 173.191406 208.277344 174.3125 C 207.9375 175.429688 207.570312 176.539062 207.179688 177.640625 C 206.785156 178.738281 206.363281 179.828125 205.917969 180.910156 C 205.46875 181.988281 204.996094 183.054688 204.496094 184.113281 C 203.996094 185.167969 203.472656 186.210938 202.921875 187.242188 C 202.371094 188.273438 201.792969 189.289062 201.191406 190.292969 C 200.589844 191.292969 199.964844 192.28125 199.316406 193.253906 C 198.667969 194.222656 197.996094 195.179688 197.296875 196.117188 C 196.601562 197.058594 195.882812 197.976562 195.140625 198.882812 C 194.398438 199.785156 193.636719 200.667969 192.851562 201.535156 C 192.066406 202.398438 191.261719 203.246094 190.433594 204.074219 C 189.609375 204.898438 188.761719 205.703125 187.894531 206.488281 C 187.03125 207.273438 186.144531 208.035156 185.242188 208.777344 C 184.339844 209.519531 183.417969 210.238281 182.476562 210.933594 C 181.539062 211.628906 180.585938 212.304688 179.613281 212.953125 C 178.640625 213.601562 177.652344 214.226562 176.652344 214.828125 C 175.648438 215.429688 174.632812 216.003906 173.601562 216.554688 C 172.570312 217.105469 171.527344 217.628906 170.46875 218.128906 C 169.414062 218.628906 168.34375 219.101562 167.265625 219.550781 C 166.183594 219.996094 165.09375 220.417969 163.996094 220.8125 C 162.894531 221.207031 161.785156 221.570312 160.664062 221.910156 C 159.546875 222.25 158.421875 222.5625 157.289062 222.847656 C 156.152344 223.128906 155.011719 223.386719 153.867188 223.613281 C 152.722656 223.839844 151.570312 224.042969 150.414062 224.210938 C 149.257812 224.382812 148.097656 224.527344 146.933594 224.640625 C 145.769531 224.757812 144.605469 224.84375 143.4375 224.898438 C 142.269531 224.957031 141.101562 224.984375 139.933594 224.984375 C 138.765625 224.984375 137.597656 224.957031 136.429688 224.898438 C 135.261719 224.84375 134.097656 224.757812 132.933594 224.640625 C 131.769531 224.527344 130.609375 224.382812 129.453125 224.210938 C 128.296875 224.042969 127.148438 223.839844 126 223.613281 C 124.855469 223.386719 123.714844 223.128906 122.582031 222.847656 C 121.445312 222.5625 120.320312 222.25 119.203125 221.910156 C 118.082031 221.570312 116.972656 221.207031 115.875 220.8125 C 114.773438 220.417969 113.683594 219.996094 112.601562 219.550781 C 111.523438 219.101562 110.453125 218.628906 109.398438 218.128906 C 108.339844 217.628906 107.296875 217.105469 106.265625 216.554688 C 105.234375 216.003906 104.21875 215.429688 103.21875 214.828125 C 102.214844 214.226562 101.226562 213.601562 100.253906 212.953125 C 99.285156 212.304688 98.328125 211.628906 97.390625 210.933594 C 96.449219 210.238281 95.53125 209.519531 94.625 208.777344 C 93.722656 208.035156 92.835938 207.273438 91.972656 206.488281 C 91.105469 205.703125 90.257812 204.898438 89.433594 204.074219 C 88.605469 203.246094 87.800781 202.398438 87.015625 201.535156 C 86.230469 200.667969 85.46875 199.785156 84.726562 198.882812 C 83.984375 197.976562 83.265625 197.058594 82.570312 196.117188 C 81.875 195.179688 81.199219 194.222656 80.550781 193.253906 C 79.902344 192.28125 79.277344 191.292969 78.675781 190.292969 C 78.074219 189.289062 77.5 188.273438 76.949219 187.242188 C 76.398438 186.210938 75.871094 185.167969 75.371094 184.113281 C 74.871094 183.054688 74.398438 181.988281 73.949219 180.910156 C 73.503906 179.828125 73.082031 178.738281 72.691406 177.640625 C 72.296875 176.539062 71.929688 175.429688 71.589844 174.3125 C 71.25 173.191406 70.9375 172.066406 70.65625 170.933594 C 70.371094 169.800781 70.113281 168.660156 69.886719 167.515625 C 69.660156 166.367188 69.460938 165.21875 69.289062 164.0625 C 69.117188 162.90625 68.972656 161.746094 68.859375 160.582031 C 68.742188 159.421875 68.65625 158.253906 68.601562 157.089844 C 68.542969 155.921875 68.515625 154.753906 68.515625 153.585938 Z M 139.933594 236.886719 C 150.199219 236.871094 160.121094 235.007812 169.691406 231.292969 L 169.691406 240.394531 L 139.933594 270.148438 L 110.175781 240.394531 L 110.175781 231.292969 C 119.746094 235.007812 129.667969 236.871094 139.933594 236.886719 Z M 95.832031 251.046875 L 102.378906 249.441406 L 128.921875 275.917969 L 107.796875 283 Z M 172.074219 283 L 150.945312 275.917969 L 177.488281 249.441406 L 184.035156 251.046875 Z M 360.144531 361.839844 L 253.015625 361.839844 L 253.015625 320.1875 L 241.113281 320.1875 L 241.113281 361.839844 L 229.207031 361.839844 L 229.207031 254.734375 L 241.113281 254.734375 L 241.113281 290.4375 L 253.015625 290.4375 L 253.015625 254.734375 L 286.285156 254.734375 L 266.644531 274.3125 C 266.082031 274.90625 265.644531 275.578125 265.335938 276.335938 L 253.429688 306.085938 C 253.339844 306.308594 253.265625 306.539062 253.203125 306.773438 C 253.144531 307.007812 253.097656 307.246094 253.0625 307.484375 C 253.03125 307.726562 253.011719 307.964844 253.007812 308.207031 C 253.007812 308.449219 253.019531 308.691406 253.042969 308.933594 C 253.070312 309.171875 253.109375 309.410156 253.167969 309.648438 C 253.222656 309.882812 253.292969 310.113281 253.375 310.339844 C 253.457031 310.570312 253.554688 310.789062 253.667969 311.003906 C 253.777344 311.222656 253.898438 311.429688 254.035156 311.628906 C 254.171875 311.828125 254.320312 312.019531 254.480469 312.203125 C 254.640625 312.386719 254.808594 312.558594 254.988281 312.71875 C 255.167969 312.878906 255.359375 313.03125 255.558594 313.167969 C 255.757812 313.308594 255.960938 313.433594 256.175781 313.546875 C 256.390625 313.660156 256.609375 313.757812 256.835938 313.84375 C 257.0625 313.933594 257.292969 314.003906 257.527344 314.0625 C 257.765625 314.121094 258 314.164062 258.242188 314.195312 C 258.484375 314.222656 258.722656 314.238281 258.964844 314.238281 C 259.726562 314.238281 260.460938 314.101562 261.167969 313.820312 L 290.925781 301.921875 C 291.683594 301.609375 292.355469 301.171875 292.949219 300.613281 L 338.777344 254.734375 L 360.144531 254.734375 Z M 360.144531 361.839844 " fill-opacity="1" fill-rule="nonzero"/></g><path fill="#eff2f8" d="M 282.773438 314.238281 L 354.191406 314.238281 L 354.191406 326.136719 L 282.773438 326.136719 Z M 282.773438 314.238281 " fill-opacity="1" fill-rule="nonzero"/><path fill="#eff2f8" d="M 282.773438 338.039062 L 330.386719 338.039062 L 330.386719 349.9375 L 282.773438 349.9375 Z M 282.773438 338.039062 " fill-opacity="1" fill-rule="nonzero"/><path fill="#eff2f8" d="M 342.289062 338.039062 L 354.191406 338.039062 L 354.191406 349.9375 L 342.289062 349.9375 Z M 342.289062 338.039062 " fill-opacity="1" fill-rule="nonzero"/></svg>