<svg xmlns="http://www.w3.org/2000/svg" xmlns:xlink="http://www.w3.org/1999/xlink" width="500" zoomAndPan="magnify" viewBox="0 0 375 374.999991" height="500" preserveAspectRatio="xMidYMid meet" version="1.0"><path fill="#0917e1" d="M 207.925781 22.140625 C 214.699219 19.199219 222.570312 20.554688 227.96875 25.59375 L 367.046875 155.402344 C 370.808594 158.90625 372.941406 163.816406 372.941406 168.957031 C 372.941406 174.097656 370.808594 179.003906 367.046875 182.511719 L 227.96875 312.320312 C 222.570312 317.359375 214.699219 318.714844 207.925781 315.773438 C 201.152344 312.828125 196.773438 306.148438 196.773438 298.765625 L 196.773438 224.589844 L 164.730469 224.589844 C 128.128906 224.589844 94.335938 244.199219 76.175781 275.976562 L 36.703125 345.050781 C 32.535156 352.351562 23.972656 355.933594 15.84375 353.773438 C 7.71875 351.617188 2.058594 344.257812 2.058594 335.851562 L 2.058594 233.859375 C 2.058594 157.050781 64.328125 94.78125 141.140625 94.78125 L 196.773438 94.78125 L 196.773438 39.148438 C 196.773438 31.765625 201.152344 25.085938 207.925781 22.140625 Z M 233.859375 81.824219 L 233.859375 113.324219 C 233.859375 123.566406 225.558594 131.867188 215.316406 131.867188 L 141.140625 131.867188 C 84.8125 131.867188 39.148438 177.53125 39.148438 233.859375 L 39.148438 266.023438 L 43.976562 257.578125 C 68.738281 214.246094 114.820312 187.5 164.730469 187.5 L 215.316406 187.5 C 225.558594 187.5 233.859375 195.800781 233.859375 206.042969 L 233.859375 256.089844 L 327.21875 168.957031 Z M 233.859375 81.824219 " fill-opacity="1" fill-rule="evenodd"/></svg>