<svg xmlns="http://www.w3.org/2000/svg" xmlns:xlink="http://www.w3.org/1999/xlink" width="500" zoomAndPan="magnify" viewBox="0 0 375 374.999991" height="500" preserveAspectRatio="xMidYMid meet" version="1.0">
<defs><clipPath id="id1">
<path d="M 90 37.5 L 369 37.5 L 369 327 L 90 327 Z M 90 37.5 " clip-rule="nonzero"/></clipPath><clipPath id="id2">
<path d="M 0 57 L 148 57 L 148 330.75 L 0 330.75 Z M 0 57 " clip-rule="nonzero"/>
</clipPath></defs><g clip-path="url(#id1)">
<path fill="#0917e1" d="M 312.417969 278.730469 C 286.601562 307.402344 260.003906 313.421875 242.222656 313.421875 C 242.21875 313.421875 242.214844 313.421875 242.207031 313.421875 C 217.765625 313.417969 194.398438 301.601562 181.222656 282.59375 C 169.683594 265.945312 167.28125 246.183594 174.464844 226.941406 C 187.363281 192.375 189.875 171.21875 182.355469 160.375 C 179.9375 156.878906 175.242188 152.71875 166.628906 152.71875 C 159.425781 152.71875 150.621094 155.597656 139.699219 161.511719 C 136.449219 163.273438 133.175781 164.167969 129.976562 164.167969 C 120.636719 164.167969 111.566406 156.304688 106.867188 144.136719 C 101.734375 130.851562 101.675781 109.941406 118.378906 94.746094 C 139.058594 75.933594 171.78125 50.921875 217.027344 50.921875 C 237.589844 50.921875 259.445312 56.121094 281.988281 66.367188 C 319.671875 83.5 344.773438 113.824219 352.675781 151.75 C 361.515625 194.214844 346.839844 240.5 312.417969 278.730469 Z M 365.40625 149.09375 C 356.765625 107.609375 328.320312 73.132812 287.363281 54.511719 C 263.121094 43.492188 239.460938 37.902344 217.027344 37.902344 C 167.28125 37.902344 131.90625 64.847656 109.632812 85.109375 C 88.050781 104.734375 88.125 131.699219 94.734375 148.828125 C 101.382812 166.054688 115.21875 177.1875 129.976562 177.1875 C 135.359375 177.1875 140.722656 175.765625 145.894531 172.960938 C 156.90625 166.992188 163.246094 165.738281 166.628906 165.738281 C 169.816406 165.738281 170.96875 166.777344 171.667969 167.792969 C 173.820312 170.890625 177.199219 182.410156 162.28125 222.386719 C 153.5625 245.738281 156.492188 269.753906 170.53125 290.011719 C 186.101562 312.480469 213.566406 326.4375 242.207031 326.441406 C 242.214844 326.441406 242.21875 326.441406 242.222656 326.441406 C 262.640625 326.441406 293.0625 319.671875 322.082031 287.449219 C 359.308594 246.097656 375.101562 195.667969 365.40625 149.09375 " fill-opacity="1" fill-rule="nonzero"/></g><path fill="#0917e1" d="M 170.746094 124.257812 C 169.933594 124.425781 169.105469 124.515625 168.285156 124.515625 C 161.964844 124.515625 156.46875 119.441406 155.226562 112.460938 C 153.765625 104.261719 158.550781 96.347656 165.882812 94.816406 C 166.695312 94.648438 167.519531 94.5625 168.335938 94.5625 C 174.65625 94.5625 180.148438 99.632812 181.394531 106.617188 C 182.851562 114.816406 178.078125 122.730469 170.746094 124.257812 Z M 168.335938 81.542969 C 166.628906 81.542969 164.910156 81.722656 163.230469 82.074219 C 149.074219 85.027344 139.742188 99.683594 142.417969 114.75 C 144.769531 127.953125 155.648438 137.535156 168.285156 137.535156 C 169.992188 137.535156 171.710938 137.355469 173.398438 137.003906 C 187.554688 134.050781 196.882812 119.390625 194.203125 104.332031 C 191.851562 91.125 180.972656 81.542969 168.335938 81.542969 " fill-opacity="1" fill-rule="nonzero"/><path fill="#0917e1" d="M 233.785156 90.765625 C 234.597656 90.597656 235.421875 90.511719 236.234375 90.511719 C 242.558594 90.511719 248.058594 95.574219 249.296875 102.558594 C 250.761719 110.761719 245.980469 118.675781 238.636719 120.207031 C 237.828125 120.375 237 120.460938 236.1875 120.460938 C 229.867188 120.460938 224.375 115.394531 223.128906 108.40625 C 221.667969 100.207031 226.449219 92.292969 233.785156 90.765625 Z M 236.1875 133.480469 C 237.894531 133.480469 239.613281 133.308594 241.292969 132.953125 C 255.449219 130 264.789062 115.34375 262.105469 100.273438 C 259.753906 87.070312 248.875 77.488281 236.234375 77.488281 C 234.53125 77.488281 232.8125 77.667969 231.132812 78.019531 C 216.976562 80.96875 207.644531 95.625 210.320312 110.691406 C 212.671875 123.898438 223.550781 133.480469 236.1875 133.480469 " fill-opacity="1" fill-rule="nonzero"/><path fill="#0917e1" d="M 273.722656 145.257812 C 272.261719 137.0625 277.039062 129.148438 284.375 127.617188 C 285.1875 127.449219 286.011719 127.363281 286.828125 127.363281 C 293.152344 127.363281 298.644531 132.433594 299.886719 139.414062 C 301.347656 147.613281 296.566406 155.527344 289.234375 157.058594 C 288.421875 157.230469 287.597656 157.3125 286.785156 157.3125 C 280.457031 157.3125 274.964844 152.246094 273.722656 145.257812 Z M 291.886719 169.808594 C 306.042969 166.851562 315.375 152.195312 312.691406 137.132812 C 310.339844 123.921875 299.464844 114.34375 286.828125 114.34375 C 285.121094 114.34375 283.40625 114.519531 281.71875 114.871094 C 267.566406 117.824219 258.234375 132.484375 260.917969 147.542969 C 263.265625 160.75 274.148438 170.332031 286.785156 170.332031 C 288.488281 170.332031 290.203125 170.160156 291.886719 169.808594 " fill-opacity="1" fill-rule="nonzero"/><path fill="#0917e1" d="M 307.421875 230.335938 C 306.617188 230.503906 305.785156 230.589844 304.972656 230.589844 C 298.652344 230.589844 293.160156 225.519531 291.921875 218.53125 C 290.457031 210.335938 295.238281 202.425781 302.566406 200.894531 C 303.378906 200.71875 304.207031 200.640625 305.019531 200.640625 C 311.339844 200.640625 316.832031 205.703125 318.078125 212.6875 C 319.535156 220.890625 314.761719 228.804688 307.421875 230.335938 Z M 305.019531 187.617188 C 303.316406 187.617188 301.59375 187.796875 299.914062 188.148438 C 285.761719 191.097656 276.429688 205.753906 279.113281 220.820312 C 281.464844 234.023438 292.335938 243.609375 304.972656 243.609375 C 306.675781 243.609375 308.398438 243.429688 310.082031 243.082031 C 324.230469 240.125 333.566406 225.46875 330.886719 210.402344 C 328.535156 197.199219 317.65625 187.617188 305.019531 187.617188 " fill-opacity="1" fill-rule="nonzero"/><path fill="#0917e1" d="M 225.378906 221.382812 C 209.285156 224.742188 198.757812 241.585938 201.855469 259.007812 C 204.957031 276.429688 220.519531 287.832031 236.609375 284.472656 C 252.707031 281.117188 263.238281 264.273438 260.132812 246.847656 C 257.035156 229.429688 241.472656 218.027344 225.378906 221.382812 " fill-opacity="1" fill-rule="nonzero"/><g clip-path="url(#id2)"><path fill="#0917e1" d="M 128.960938 303.5 C 124.410156 295.269531 115.363281 288.820312 106.628906 283.621094 C 102.21875 280.996094 99.753906 277.996094 99.078125 274.445312 C 98.164062 269.59375 100.765625 264.171875 102.539062 261.390625 L 109.855469 258.375 C 110.027344 258.359375 110.261719 258.347656 110.546875 258.347656 C 113.742188 258.347656 122.210938 259.816406 131.777344 273.414062 C 137.578125 281.652344 134.167969 293.523438 128.960938 303.5 Z M 14.292969 74.449219 C 14.933594 72.132812 16.152344 70.964844 17.917969 70.964844 C 18.667969 70.964844 19.496094 71.15625 20.375 71.539062 C 23.269531 72.796875 26.007812 75.753906 27.660156 79.363281 L 94.335938 230.933594 L 91.675781 232.207031 L 15.839844 85.125 C 14.027344 81.480469 13.453125 77.488281 14.292969 74.449219 Z M 91.5625 246.738281 L 105.703125 239.972656 C 105.847656 239.9375 105.992188 239.917969 106.140625 239.917969 C 106.714844 239.917969 107.464844 240.203125 107.84375 240.988281 L 108.324219 242 C 108.605469 242.582031 108.523438 243.105469 108.402344 243.441406 C 108.285156 243.777344 108.019531 244.234375 107.441406 244.507812 L 93.996094 250.9375 C 93.738281 251.058594 93.46875 251.125 93.1875 251.125 C 92.613281 251.125 91.863281 250.839844 91.488281 250.054688 L 91.003906 249.039062 C 90.613281 248.226562 90.867188 247.261719 91.5625 246.738281 Z M 120.789062 247.363281 C 121.957031 243.726562 121.714844 239.851562 120.0625 236.390625 L 119.578125 235.378906 C 117.21875 230.421875 112.242188 227.160156 106.785156 226.921875 L 39.523438 74.027344 C 36.492188 67.394531 31.398438 62.136719 25.554688 59.597656 C 23.03125 58.5 20.460938 57.945312 17.917969 57.945312 C 10.289062 57.945312 3.941406 63.0625 1.757812 70.976562 C 0.0585938 77.117188 0.949219 84.386719 4.238281 91.007812 L 80.734375 239.378906 C 77.582031 243.664062 76.816406 249.519531 79.265625 254.652344 L 79.75 255.664062 C 81.351562 259.007812 84.140625 261.582031 87.457031 262.976562 C 86.136719 266.964844 85.355469 271.71875 86.277344 276.753906 C 87.636719 284.132812 92.242188 290.210938 99.972656 294.808594 C 123.257812 308.683594 119.769531 315.75 117.21875 320.914062 C 115.769531 323.84375 116.71875 327.394531 119.433594 329.207031 C 120.535156 329.953125 121.796875 330.3125 123.042969 330.3125 C 124.863281 330.3125 126.65625 329.550781 127.9375 328.09375 C 129.253906 326.589844 160.027344 290.957031 142.414062 265.914062 C 134.792969 255.082031 127.109375 249.828125 120.789062 247.363281 " fill-opacity="1" fill-rule="nonzero"/></g></svg>